<?xml version="1.0" encoding="UTF-8"?>
<svg version="1.1" viewBox="0 0 2000 2000" width="500" height="500" xmlns="http://www.w3.org/2000/svg">
<path transform="translate(1289,341)" d="m0 0h6l1 4-6 13-15 29-8 16-17 35-15 33-11 22-9 20-13 29-8 19-10 23-18 41-13 28-11 22-22 48-12 27-13 30-15 31-11 26-11 31-1 5 7 1 22 1 77 1 5 1-1 5-11 15-18 27-19 29-16 26-11 17-14 22-23 35-10 16-9 15-15 24-12 20-12 19-7 10-38 57-14 23-12 20-9 16-14 22-6 11-12 18-13 22-14 24-9 16-14 26-12 19-10 19-8 14-11 19-10 18-6 11-10 17-11 17-8 12h-2l-2 4-9 8-4 2-6-1-1-1 1-8 8-22 7-15 17-40 17-38 10-21 11-25 13-29 9-20 11-24 16-35 10-19 11-25 8-16 10-22 10-19 13-28 7-16 7-15 8-16 15-31 15-30 11-25 10-22 11-26 5-11-111-1 2-5 16-25 10-16 11-17 12-20 8-13 10-17 14-24 10-17 9-15 10-17 13-22 10-16 17-29 8-13 9-15 10-17 10-16 9-15 28-49 10-18 12-20 16-27 12-21 10-18 10-17 13-24 10-16 16-28 8-12 13-16 20-20 14-9z" fill="#E3CFF5"/>
<path transform="translate(1021,465)" d="m0 0 42 1 20 4 12 4-1 6-10 24-13 31-1 1-59-3h-25l-36 2-25 5-25 6-27 8-20 8-21 9-16 8-13 7-11 7-19 12-19 14-16 13-20 18-24 24-7 8-12 15-11 15-9 13-12 20-15 29-8 18-10 27-9 29-5 23-5 37-1 13v47l2 24 5 33 6 25 11 35 12 29 9 20 9 16 10 15 11 16 14 19 11 14 12 14 16 16 11 9 7 7 16 12 10 7 14 9 6 7 1 4-3 10-7 16-10 19-6 7-3 3-23-14-14-10-13-10-10-8-11-9-17-16-10-9-7-8-8-8-7-8-11-13-13-18-14-21-10-17-10-18-11-23-11-26-10-28-10-38-6-33-5-43v-52l4-35 2-22 9-41 8-28 9-24 7-17 8-16 8-17 6-11 12-20 10-15 10-14 11-14 12-14 9-10 9-11 23-23 11-9 13-11 13-10 17-12 22-14 15-9 16-9 16-8 11-5 23-9 28-9 29-8 28-6 33-5 25-2z" fill="#E3CFF5"/>
<path transform="translate(1277,557)" d="m0 0 5 2 12 9 14 12 20 20 7 8 12 12 7 8 11 12 13 17 10 14 11 17 15 25 12 23 11 25 13 33 8 25 6 20 5 24 4 30 2 24 1 21v22l-1 9-1 23-2 12-2 21-9 37-16 52-10 24-8 16-12 22-14 24-13 18-10 15-13 15-11 13-10 11-7 8-11 11-8 7-14 12-17 13-15 11-30 20-33 18-30 14-19 7-17 5-26 8-40 7-30 3h-76l-28-3-20-4-4-2 1-7 8-21 5-11 9-21 2-2 11 1 33 4 36 1 27-1 25-3 44-11 20-7 9-4 16-6 38-19 21-13 16-11 11-8 8-7 11-9 9-9 6-5 7-8 16-16 18-22 15-22 12-19 10-18 11-23 8-19 12-36 6-24 6-39 2-18 1-17v-32l-2-21-6-40-8-33-10-29-11-26-8-16-13-23-14-22-11-15-11-14-14-17-9-10-13-14-8-7-11-10-10-8-4-5 2-9 8-16 9-17 7-11z" fill="#C7AEEA"/>
<path transform="translate(1021,465)" d="m0 0 42 1 20 4 12 4-1 6-10 24-13 31-1 1-59-3h-25l-36 2-25 5-25 6-27 8-20 8-21 9-16 8-13 7-11 7-19 12-16 12-4 1-9 6-8 7h-2v2l-4 1-1 3-6 5-2 3-3 1-5 6-7 6-5 6-4 1v3l-5 3-5 5-6 7-11 14-4 7-7 10-3 7-5 4-2 5-4 4-8 16-4 9-2 5-6 11-1 2-6 1-2-2v-10l7-1v-6l4-9 3-8 5-6 3-6 5-5 1-4-1-3 2-4-4 1-9 8-5 2-10-1-2 2-2 6-3 1h-6l-4 2-2-1 1-4 1-5-5-4 1-3 2-1v-10h2l1 3-1-5v-4l3-6v-7l7-2 2-5 7-9 3-7 6-7 1-2h2l8-16 8-7 3-4h3l1-3 13-9 2-4h2v-2l10-6 2-3 5-1 1-4h4v-2l5-2 7-8 6-2 2-4 11-7 4-5 5-6 4-2 3-3h2v-2h3v-2l6-1 1-2 9-4 5-1v-2l5-3 4-2 2-4h4l1-2 5-1 7-8 9-3 12-3 6-2 9-1v-2l7-2 3-3 7-1 4 1 3-1 2-4 10-3 1-3 2-1h12l9-2 7-4h5l1-3 4-1 1-4 4-1v-3l4-2 39-6 25-2z" fill="#F4E8FB"/>
<path transform="translate(1289,341)" d="m0 0h6l1 4-6 13-15 29-8 16-17 35-15 33-11 22-9 20-13 29-8 19-10 23-18 41h-3l-1 5-4 4-3 7-2 6-6 7-1 7-2 3h-2v6l-2 4h-2v6l-9 18h-2l-2 9-5 9h-2l-1 9-3 1-2 7-2 1-2 4-6 2v-2h-3l-1 4-7 3-5 4-5 8h-2l-1 5h-2l1 6-3 4-1 4-3 3-3 7-10 7-2 4-5 2-5 6-2-1v-2l-5 1-4 5-3 8-5 5-11 6h-2l1 8-4 2-5 2h-3v2h-2l-1-3 3-9v-5l-3-5-2-2 4-7-1-3 3-1 3-9v-2l-5 2-4 3-1-5 6-12 5-15 12-19 15-26 11-18 9-15 10-17 10-16 9-15 28-49 10-18 12-20 16-27 12-21 10-18 10-17 13-24 10-16 16-28 8-12 13-16 20-20 14-9z" fill="#F4E8FB"/>
<path transform="translate(1277,557)" d="m0 0 5 2 12 9 14 12 20 20 7 8 12 12 7 8 11 12 13 17 10 14 11 17 15 25 12 23 11 25 13 33 6 18-1 6h-4l-7-2-2-2v-3l-2 1-1 4h2l2 3-1 11-2 9 4 2 1 1v8l4 2 2 18h-2l-1 6 5 8-1 7-3 3 1 8-5 4-4 4-1 5v7l1 4-3 3-1 3 1 3-3 7-4 2-1 3 3 4-1 8-6 3-5 5-1 2 1 6-2 4-1 6h-2l1 9-2 3-3 14-3 6h-2v3h-2v2l4 2-1 3h-4l-1-8 1-14 4-31 1-17v-32l-2-21-6-40-8-33-10-29-11-26-8-16-13-23-14-22-11-15-11-14-14-17-9-10-13-14-8-7-11-10-10-8-4-5 2-9 8-16 9-17 7-11z" fill="#E3CFF5"/>
<path transform="translate(538,1019)" d="m0 0h2l3 8 1 2 3 1 2 4-1 6v2l5 1 3 6 7 4h6l1 5-1 5 4 4 1 3 9 3-1 3 3 5v3l7 2v6l8 4 3 2 2 6 6 2 2-4 6 1 1-2 7 15 8 18 9 16 10 15 11 16 14 19 11 14 12 14 16 16 11 9 7 7 16 12 10 7 14 9 6 7 1 4-3 10-7 16-10 19-6 7-3 3-23-14-14-10-13-10-10-8-11-9-17-16-10-9-7-8-8-8-7-8-11-13-13-18-14-21-10-17-10-18-11-23-11-26-10-28-10-38 1-5 3-1 1-12h-3v-3h-3v-2h2v-8z" fill="#C7AEEA"/>
<path transform="translate(1050,1026)" d="m0 0h5l1 4-2 3-2 10-4 7h-2l-1 5-4 4-3 9-5 7-1 5-4 1-1 5-3 5h-2v6l1 2h-2l-1 5-4-1v8l1-1 2-4 2-1-1 5-13 21-10 16-7 10-38 57-14 23-12 20-9 16-14 22-6 11-12 18-13 22-14 24-9 16-14 26-12 19-10 19-8 14-11 19-10 18-6 11-10 17-11 17-8 12h-2l-2 4-9 8-4 2-6-1-1-1 1-8 8-22 7-15 17-40 17-38 10-21 11-25 13-29 9-20 11-24 16-35 10-19 2-4 2 2v7l-2 4 3-1 9-17 4-9 2-6 6-8 3-9 8-14 3-3h2l2-5h5v2h2l2-4h2v-2h2l1-4h2l2-5 5-5 5-8 4-6 2-5h2l2-5 6-11 4-4 2-5h5v-2h2v-3l3-3 1-2h3l1-6 6-5 4-9 5-2 3-11 5-3-1-4 6-3 4-5 1-4 2-2 2-6 5-2 5-8-1-3 3-1 3-5h2l2-6 11-8 4-6 9-6 2-2h3z" fill="#C7AEEA"/>
<path transform="translate(1289,341)" d="m0 0h6l1 4-6 13-15 29-8 16-17 35-15 33-11 22-9 20-4 9h-2l1-8 3-3 1-6h2l3-12h2v-7h3v-8l2-5-1-9 3-3 2-1v-4l-5-1-1-3 2-5v-8l-1-9 1-7 2-11 3-5 2-7 3-4v-4l-7 4-4 7-5 4 1-4 7-11 13-16 20-20 14-9z" fill="#E3CFF5"/>
<path transform="translate(1271,571)" d="m0 0h2l4 5 5 4 4 6v2l3 1 2 5-2 5v11l1 7-1 4-10-1-2 5 3 8 7 5 3 5v2l5 2 2 3 5 2v2l3 1 7 8 4 5 4 9 3 8-6-1-3-2v-2l-3-1-1-4-5-1-9-11-8-8-7-8-12-11-9-8-7-5-2-8 1-6 2-7 2-3 2-7 6-9 2-5h2l2-5z" fill="#F4E8FB"/>
<path transform="translate(619,1108)" d="m0 0 4 1 7 14 9 19 15 23 11 16 14 19 11 14 12 14 16 16 11 9 7 7 16 12 10 7 8 5v5l-4 1-2-2-5-2-10-5v-2l-5-2-4-1v-2l-4-2-8-7-1-4-5-2-3-4v-2l-4-2-1-4-3-1v-2l-5-2-4-5-4-2-5-5-3-2-1-3-9-6-6-7-4-7-6-5-3-5-5-3-3-7-5-5-2-3v-3h-2l-3-6-6-8-3-5-3-2v-2h-2l-2-15-4-7-2-1v-3l2-2-2-5-5-1 1-5z" fill="#E3CFF5"/>
<path transform="translate(754,616)" d="m0 0 2 1-13 11-11 9-16 15-22 22-7 8-12 15-11 15-9 13-12 20-15 29h-2l2-6 4-8 3-9 4-6 4-9 4-6 2-1 2-5 3-3h2l2-7 9-13 6-9 7-9 3-4h2l2-4h2l2-4 3-3h3v-3l4-1 1-3 5-5h2l2-4h2l2-4h2l1-3 3-1 6-7 5-4h2v-2l9-7 3-3 7-4z" fill="#E4D0F6"/>
<path transform="translate(964,467)" d="m0 0h8l1 5v4l-3 1-8-1-5-1-1-3-5-1-6 4h-3v2h-3v2l-10 3-8 1h-5l-1-4 2-2-1-3 39-6z" fill="#E2CEF5"/>
<path transform="translate(904,535)" d="m0 0 5 1v7l-16 5-3-1-14 4-8 2-2-5 6-5 14-4z" fill="#FDFCFD"/>
<path transform="translate(1021,465)" d="m0 0 42 1 6 1v1l-20 1-7 1h-14l-7-1-9 2-1 1h-8l-6-2-12-2v-2z" fill="#E4D0F6"/>
<path transform="translate(1084,499)" d="m0 0 1 3-14 33-1 1-59-3h-31l-2-2 18-1h15l25 1h17l6 2 10-1 7-15 5-13z" fill="#E4D0F6"/>
<path transform="translate(1163,625)" d="m0 0h2l-1 5-22 45-11 24-3 6h-2l-1-3 2-4 2-1 2-7h2l2-7 2-3 1-6h2l2-10h2l2-10 4-5h2l3-9 3-7 2-3h2z" fill="#E4D0F6"/>
<path transform="translate(1078,875)" d="m0 0 85 1 5 1v3l-11-1-25 1h-21l-16-2-17-1z" fill="#C7AEEA"/>
<path transform="translate(983,818)" d="m0 0 2 1 1 3-3 4v3h-2l-2 7-3 4-2 4h-2l-1 4-4 1 3-12h2l2-6 4-4 2-6z" fill="#F5E9FC"/>
<path transform="translate(964,467)" d="m0 0h8l1 5v4l-3 1-8-1-5-1-1-3-5-2 4-2z" fill="#E4D0F6"/>
<path transform="translate(1034,724)" d="m0 0 1 2-3 7-4 7-2 3-2 6-6 7h-2l-1 4-5 8-2-1 12-20 13-22z" fill="#E4D0F6"/>
<path transform="translate(1149,536)" d="m0 0h3l-1 6-5 10-4 4-2 3h-3l3-11 3-4h2l1-4 1-2h2z" fill="#FEFEFE"/>
<path transform="translate(527,899)" d="m0 0 2 1v5l-1 4 4 14-3 3-2-4-3 1v-10l2-12z" fill="#C8AFEA"/>
<path transform="translate(1069,468)" d="m0 0 10 1 16 5-1 6-3 7h-1v-7l1-4-22-7z" fill="#E4D0F6"/>
<path transform="translate(1204,534)" d="m0 0 1 2-11 25-7 16-2-2 2-6h2l1-6 3-5 3-7 5-13z" fill="#E5D1F6"/>
<path transform="translate(1211,420)" d="m0 0 1 4-4 8-4 7-4 6-4 2 2-5z" fill="#E4D0F6"/>
<path transform="translate(1379,660)" d="m0 0 5 5 10 15 5 8v2h-2v-2l-4-1-4-9-3-5v-2h-2l-3-6-2-2z" fill="#C9B0EA"/>
<path transform="translate(593,865)" d="m0 0h2l1 6-1 7-4 1-1-3v-7l1-3z" fill="#F5E9FC"/>
<path transform="translate(1183,579)" d="m0 0h2l-3 10-9 20-1-3 3-8 2-3 2-6z" fill="#E2CEF5"/>
<path transform="translate(527 1e3)" d="m0 0 5 3 1 6-5 3-1-3z" fill="#C7AEEA"/>
<path transform="translate(1049,699)" d="m0 0 1 3-5 9h-2l-2 5-4 5 1-5 7-11z" fill="#E6D3F6"/>
<path transform="translate(1077,493)" d="m0 0h3l1 3-3 3-2 5h-4l1-4h2z" fill="#FEFEFE"/>
<path transform="translate(1277,557)" d="m0 0 5 2 12 9-2 1-11-8-6-1v-2z" fill="#C8AFEA"/>
<path transform="translate(1101,611)" d="m0 0 1 4-5 8-4 7h-2l2-5z" fill="#E4D0F6"/>
<path transform="translate(1194,557)" d="m0 0 1 2-8 18-2-2 2-6h2l1-6z" fill="#E3CFF5"/>
<path transform="translate(968,524)" d="m0 0 6 1 1 4-4 1-4-1-1-3z" fill="#FEFEFE"/>
<path transform="translate(535,841)" d="m0 0 3 1-1 6v3h-4z" fill="#C8B0EA"/>
<path transform="translate(1170,609)" d="m0 0h2l-3 9-3 7h-1l1-8z" fill="#E4D0F6"/>
<path transform="translate(1107,718)" d="m0 0h5l-2 6h-4l-1-4z" fill="#E4D0F6"/>
<path transform="translate(1437,774)" d="m0 0 5 5h2l1 6-8-6-1-4z" fill="#C7AFEA"/>
<path transform="translate(1069,468)" d="m0 0 10 1 7 2v1h-8l-9-3z" fill="#DBC5F2"/>
<path transform="translate(1e3 1134)" d="m0 0 1 4-4 7-2-2 1-5z" fill="#E0CBF4"/>
<path transform="translate(530,877)" d="m0 0 2 4-1 7-3 1 1-11z" fill="#C7AEEA"/>
<path transform="translate(1072,509)" d="m0 0 2 1v5l-5 1 1-6z" fill="#FEFEFE"/>
<path transform="translate(773,1290)" d="m0 0 6 1 1 2-2 3h-4z" fill="#E4D0F6"/>
<path transform="translate(633,1133)" d="m0 0 3 3 5 9-1 2-7-9z" fill="#C9B0EA"/>
<path transform="translate(1474,917)" d="m0 0h1v16h-2l-1-7z" fill="#E4D0F6"/>
<path transform="translate(612,785)" d="m0 0h2l1 2v6h-3v-3l-2-1z" fill="#F5E9FC"/>
</svg>
