<?xml version="1.0" encoding="UTF-8"?>
<svg version="1.1" viewBox="0 0 1024 1024" width="1024" height="1024" xmlns="http://www.w3.org/2000/svg">
<path transform="translate(513,173)" d="m0 0h3l6 11 7 10 8 15 7 11 12 21 8 13 10 17 11 18 14 22 15 25 10 16 9 15 8 13 33 55 10 16 6 11-1 8-4 11-6 14-3-1-16-26-10-16-11-19-27-45-7-11-11-17-6-11-7-10-7-12-8-13-10-16-8-12-5-9-8-13-6-11-6-10-4-6-3-5v-6l10-16 2-3-5 5-4 6h-2v3h-2v-33h-2l-1 26-1 10 1 9-4 5-6 10-6 9-7 13-13 21-11 18-16 26-9 15-6 8h-2l-3 9-8 13-7 12-8 13-14 24-16 26-13 22-5 8-5 10h-2l-8-17-5-12v-7l9-14 13-20 6-11 21-35 7-12 8-13 13-21 4-6 6-12 9-13 12-19 10-17 6-10 12-19 10-18 10-14 6-10zm-84 180 2 3v-3zm-29 21-4 3v6l1 1h9l2-2-1-7-1-1zm225 0-3 2-1 7 3 2h5l3-4v-3l-5 1 1-2 3-2-1-1zm-255 52-2 2 1 4 2 2 5-1 2-3v-3l-2-1zm283 0-1 1v5l1 1h5l2-3-1-4z" fill="#FDFD53"/>
<path transform="translate(302,624)" d="m0 0h291l5 3 2 3 1-2h-2v-4h150l8 6 16 16 9 7v4l-45-1h-463l-46 1 1-2 12-5 12-7 15-11 8-6 2-1zm213 11-5 3-1 3 3 5h7l2-3-1-7z" fill="#FDFD52"/>
<path transform="translate(595,128)" d="m0 0 9 1 19 6 13 4 20 8 20 10 22 12 17 11 5 4 2-4 4-6 3 1-7 9 2 4 13 10 17 16 17 17 3 6 5 4 10 13 12 15 13 20 14 26 5 11 3 5 10 30 8 31 4 25 2 25 1 30-3 36-5 25-4 17-6 19-7 20-11 24-8 15-6 10-3-2 1-7 8-13 12-26 8-21 7-23 4-17 5-29 2-32v-13l-3-35-4-26-4-16-5-18-6-18-4-7-1-5-8-17-7-12-6-12-7-10-10-15-9-11-9-10-7-8-5-5-12-13-10-10-2-1v-2l-4-2-11-10-4-1-2 4-3 5v4l12 9 15 14 9 9 9 11 11 13 10 12 13 19 8 13 8 16 9 19 3 7 8 24 5 19 5 26 3 24 1 34-3 34-2 14-3 12-4 17-5 16-4 11-10 23-7 14-3 4-3-1-3-4 1-9 4-7 3-7 5-10 10-30 6-23 3-16 3-30v-35l-4-34-5-24-6-22-7-20-1-2-7 1-8 3 1-3 11-6-6-15-6-11-12-20-11-16-10-13-13-15-15-16-14-13-10-8-5 1-9 10-10 13-9 12-8 10-7 9v3l14 11 17 17 9 11 13 17 12 20 9 19 6 12 1 5 6 18 5 24 3 19 1 30-1 18-4 26-4 13h-4l-3-4 1-8 4-23 1-22-6-2v-1h6v-17l-1-18-9-40-4-12-4-4-1-6-9-20-13-23-10-14-15-16-11-11-10-8-4-3-4 1-10 14-5 6h-2l3 5 14 12 6 5 11 14 5 7 18-2 1 5-4 7-4 3 1 4 11 19 4 9 2 5 5-1 7-5 6-2-5 5h-3v2l-4 1v2l-3 1 1 9 4 17 3 25 1 26-3 6-3-4 1-10v-11l-1-1-1-20-4-20-3-12h-4l-14 7-5 2-3-1 10-6 13-6-1-6-16-32-11 1-6-3 3-6 3-3-1-5-9-11-7-8-2-1v-2l-4-2-3-2v-2l-4-2-5-5h-4l-6 8-5 6-1-2 9-14 1-4-5-2-15-9-8-4v-4l6 1 13 7 9 7 4 2 6-8 11-15-1-4-18-11-17-9-12-6-1-2v-6l5-1 15 8 14 7 10 6 10 7h3l18-22 13-17 7-10 5-6 2-2-14-10-11-7-19-10-14-7-10-4-21-8-15-5-1-1v-6l2-3 7 1 13 4 21 8 24 11 17 9 11 7 14 11 4 1 7-11-4-4-11-7-35-19-10-4-12-6-47-16z" fill="#FDFD58"/>
<path transform="translate(502,418)" d="m0 0h23l16 4 16 7 19 10 20 14 10 6 14 10 5 4 10 5-3 3-15 8-10 7-10 6-11 8-19 12-5 2-11 8-13 6-17 4h-16l-17-4-14-9-8-6-10-21-4-13-1-14 1-13 4-12 4-5-5 2-5 4-10 4-12 11 4-2 10-8h5l1 27 2 10 6 16 2 4v3h2l1 5-5-1-24-16-10-7-16-10-10-7 2-4 11-6 21-16 17-12 17-9 17-8 12-5zm5 20-11 4-9 6-7 9-5 13v15l3 10 6 10 11 8 11 4h17l13-5 11-10 6-12 2-10-1-12-7-14-5-6-11-7-10-3zm65 7 5 20 1 8v9l-4 16-4 10-6 9 1 3 9-10 3-7 4-15 2-29 1-3-2-5-8-6zm-132 16v2h2v-2z" fill="#FDFD54"/>
<path transform="translate(430,128)" d="m0 0 5 1v3l-27 8-23 8-25 11-22 12-22 14-2 4 3 1 4 7 5-2 18-12 18-10 17-9 16-6 14-5 18-5h4l1 8-8 4-15 5-28 11-24 13-16 10-11 8 2 4 7 9 11 15 8 10v2h-2l-11-14-18-22-4 2-4 3h-3v2l-8 6-4 4h-2v2l-8 7-7 7-7 8-8 10-10 12-11 18-7 10-13 25-4 8v3l16 8 1 2-9-3-7-3v-2l-4 1-8 21-6 21-4 17-3 16-2 20-1 17v18h20v2h-20v20l3 27 5 22 6 19 3 10 5 12 9 20 3 5-1 5-4 4-4-2-6-11-8-16-9-24-6-23-4-18-4-30v-49l4-35 6-27 8-26 5-15 19-38 11-17 13-19 9-12 10-11 7-8 18-18h2v-2l8-7 11-8-6-10-4 1-14 11-13 12-21 21-11 14-14 18-11 17-9 15-9 16-7 15-1 4 9 2 2 4-5-1-9-3-3 11-6 20-7 29-4 21-2 24v28l10 1v1h-11l2 32 4 26 6 26 6 19 5 13 8 19 9 15 6 9v5l-4 1-11-19-8-14-10-25-8-25-5-23-3-16-2-21-1-20-2-3h2l1-33 5-37 6-29 10-30 2-5v-4l-2-1v-2h4l8-16 9-16 10-18 14-20 12-14 8-10 12-14 12-11 11-11 10-8 9-6-4-10 6 5 4-2 9-6 10-6 20-11 28-13 21-7 21-6z" fill="#FDFD58"/>
<path transform="translate(334,468)" d="m0 0 4 4 5 11 5 13v6l-11 18-13 20-9 15-12 19-18 30-10 16-7 7-9 6-10 7-11 6-14 7-3 3h-3l1-5 3-5 7-11 10-15 8-13 13-20 7-11 9-15 14-22 15-24 12-20 10-15z" fill="#FDFD53"/>
<path transform="translate(692,470)" d="m0 0h3l9 15 7 12 14 23 9 14 11 18 10 15 6 11 7 11 6 11 17 26 11 16 7 14-2 1-5-1-16-1v-2h9l-3-3-11-6-13-9-15-14-7-10-8-14-7-11-13-21-12-20-13-22-13-23-1-4 4-5 4-10z" fill="#FDFD53"/>
<path transform="translate(428,235)" d="m0 0h3v9l-16 8-21 12-12 8 1 5 10 13 6 8 5-2 11-8 9-5 2-1h6l-1 4-17 9-10 6 1 5 7 9-1 2-10-11-5 2-14 13h-2l-2 4h-2l-2 4h-2l-2 4-7 8 1 4 6 5 1 5-1 2-9 1h-10l-17 34v3l8 3 5 5 11 4v2l-9-2-14-6-4-2-6 25-2 11v11l4 2v3l-6 2v21l-2 5h-2v-5l-1-1h-10l-3 5-5 2-5-4-1-7 5-6 5-1 3 3 1 3 2 1h7v-22l2-5 4-26 6-20 3-8 8-16 10-17v-5h-2l-2-4 1-5 3-3 6 1 6 2 2-5 9-12 16-16 10-7-2-4-13-16-1-3h-2v-2l-7 3-13 12-8 7-10 11-11 14-9 13-15 27-5 11v3l9 5-3 1-6-3-3 1-8 26-5 25-2 26v10l1 2 3 2-4 2 2 26 4 21-1 5-4 7h-2l-4-15-3-16-3-28-14-1h-20l-4 6h-6l-4-5 1-7 6-4 5 2 5 5h31l3-36 5-26 4-15 3-8 3-11h2l3-9 7-16 12-20 8-11 13-16 12-13 7-7 14-11 3-1-1-4-7-11-5-6 1-2 6 7v2h2l6 8v2l6-3 10-7 13-8 16-8z" fill="#FDFD5B"/>
<path transform="translate(688,223)" d="m0 0 3 2-6 7-10 13-8 11-9 11v3l14 11 17 17 9 11 13 17 12 20 9 19 6 12 1 5 6 18 5 24 3 19 1 30-1 18-4 26-4 13h-4l-3-4 1-8 4-23 1-22-6-2v-1h6v-17l-1-18-9-40-4-12-4-4-1-6-9-20-13-23-10-14-15-16-11-11-10-8-4-3-4 1-10 14-5 6h-2l3 5 14 12 6 5 11 14 5 7 18-2 1 5-4 7-4 3 1 4 11 19 4 9 2 5 5-1 7-5 6-2-5 5h-3v2l-4 1v2l-3 1 1 9 4 17 3 25 1 26-3 6-3-4 1-10v-11l-1-1-1-20-4-20-3-12h-4l-14 7-5 2-3-1 10-6 13-6-1-6-16-32-11 1-6-3 3-6 3-3-1-5-9-11-7-8-2-1v-2l-4-2-3-2v-2l-4-2-5-5h-4l-6 8-5 6-1-2 9-14 1-4-5-2-15-9-8-4v-4l6 1 13 7 9 7 4 2 6-8 11-15-1-4-18-11-17-9-12-6-1-2v-6l5-1 15 8 14 7 10 6 10 7h3l18-22 13-17z" fill="#FDFD5B"/>
<path transform="translate(445,839)" d="m0 0h2l1 2 1 28 2 1 11-14 9-10 5-6 8-1h12l11 1 7 15 3 7 4 13 4 12v5l3-3 3-10 3-7 6-17 7-14 1-1 16-1-1 6-7 17-10 21-4 10-8 16-2 3-13-1-7-15-7-19-4-10-5-14-3-9h-4l-2 4-10 13-8 9 1 5 8 10 10 13 7 9 2 5-4 1-13-1-4-4-4-6-13-18-4 2-6 8-1 17-2 2-10-1-2-1v-18l2-20 1-32z" fill="#FDFD55"/>
<path transform="translate(430,128)" d="m0 0 5 1v3l-27 8-23 8-25 11-22 12-22 14-2 4 3 1 4 7-2 3-6-9-4 1-14 11-13 12-21 21-11 14-14 18-11 17-9 15-9 16-7 15-1 4 9 2 2 4-5-1-9-3-3 11-6 20-7 29-4 21-2 24v28l10 1v1h-11l2 32 4 26 6 26 6 19 5 13 8 19 9 15 6 9v5l-4 1-11-19-8-14-10-25-8-25-5-23-3-16-2-21-1-20-2-3h2l1-33 5-37 6-29 10-30 2-5v-4l-2-1v-2h4l8-16 9-16 10-18 14-20 12-14 8-10 12-14 12-11 11-11 10-8 9-6-4-10 6 5 4-2 9-6 10-6 20-11 28-13 21-7 21-6z" fill="#FCFC61"/>
<path transform="translate(650,666)" d="m0 0 15 1-3 4h-2l1 3 69 1 7 3v2l-5-1-66-1v4h2l5 5 3 2 27 3 6 4-1 2-8-3-16-2-3-1 3 9h2l5 5v2l4 2 1 3h2l3 3 4-2 8-7-1-4-2-4 4 2 2 2 11-9 8-8 5-6 8-7 3-3h11l-1 4-11 13-18 18-8 7-11 10-13 10-20 13-11 7-14 7-23 10-23 9-11 3-1-1v-9l5-3 22-8 38-17 15-10 2-1v-5l-16-20v-2l-5-1 1 4v17l-3-1v-24l-5-9-5-7-4 1-14 8-19 9-5 2-5-1-1-7 11-5 23-11 5-3-2-4-3-4v-2l4 1 4 4 7-1 2-1zm6 8-9 8 5 6 2 4 5 5 5 7h2l2 4 12 14 4 6 5-1 9-8-2-4-2-3h-2l-1-3h-2l-2-4-5-6h-2l-1-4-3-1v-2l-8-6-6-8h-2l-1-3z" fill="#FDFD58"/>
<path transform="translate(595,128)" d="m0 0 9 1 19 6 13 4 20 8 20 10 22 12 17 11 5 4 2-4 4-6 3 1-7 9 2 4 13 10 17 16 17 17 3 6 5 4 10 13 12 15 13 20 14 26 5 11 3 5 10 30 8 31 4 25 2 25 1 30-3 36-5 25-4 17-6 19-7 20-11 24-8 15-6 10-3-2 1-7 8-13 12-26 8-21 7-23 4-17 5-29 2-32v-13l-3-35-4-26-4-16-5-18-6-18-4-7-1-5-8-17-7-12-6-12-7-10-10-15-9-11-9-10-7-8-5-5-12-13-10-10-2-1v-2l-4-2-11-10-4-1-2 4-2 2h-3l5-10-18-12-34-18-9-4-17-7-41-14z" fill="#FDFD60"/>
<path transform="translate(287,838)" d="m0 0h18l12 5 8 7 5 6 4 9 1 4v12l-3 10-6 10h-2l-1 3-7 5-11 4h-15l-10-3-9-6-7-8-4-11v-21l4-9 7-9 7-5zm5 14-9 4-5 5-3 7v14l5 10 8 5 3 1h12l8-5 6-7 2-6v-9l-4-10-7-6-7-3z" fill="#FDFD56"/>
<path transform="translate(631,840)" d="m0 0h42l10 3 8 8 3 7v9l-4 8-7 6-3 1 1 5 13 23v1h-18l-6-14-6-8-19-1v22l-1 1-13 1-1-1v-70zm17 14-3 2v17l1 1h19l9-2 4-5-1-9-3-3-3-1z" fill="#FDFD56"/>
<path transform="translate(395,666)" d="m0 0h3l-2 4-5 7 5 3 15 8 12 5 8 2 1 2v6l-1 2-9-2-21-9-15-9h-2l-8 10-11 14-12 13-5 7 4 4 13 8 17 9 14 6 23 9 12 4 2 2v7l-3 2-16-5-24-9-15-7-12-6-22-13-13-9-9-7-11-8-12-11-8-7-15-15-9-12v-3h11l5 6v2l4 2v2l4 2v2l4 2 13 13 11 9 9 7h4l1-2h2l-2 6 8 6 3 2h4l6-8 7-8 3-3h2l2-4 10-12 4-6h2v-4l-16-11-2-4h10l11 7h5l2-4z" fill="#FDFD59"/>
<path transform="translate(340,840)" d="m0 0h15l10 13 10 14 11 15 2 5h2v-47h13l1 4v32l-1 35-13 1-6-7-10-14-16-21-3-4-3-1 1 4v42h-13l-1-21v-49z" fill="#FDFD55"/>
<path transform="translate(568,840)" d="m0 0h55v14l-1 1h-40v14h38l1 4-1 9-18 1h-20l1 14 39 1 2 3-1 10h-56v-69z" fill="#FDFD56"/>
<path transform="translate(215,838)" d="m0 0h17l10 3 10 9 2 5-2 5h-11l-7-6-2-1h-15l-5 5 1 5 10 4 14 3 11 4 7 6 1 4v12l-3 6-7 7-11 4h-17l-13-5-8-7-3-6 1-5h12l7 6 9 3h10l6-4 1-5-3-3-9-3-16-3-9-5-6-7-1-2v-12l4-8 6-5z" fill="#FDFE59"/>
<path transform="translate(719,838)" d="m0 0h16l12 4 9 8 2 3v7l-14 1-3-5-5-3-12-1-7 3-2 5 5 5 10 3 17 4 9 6v2h2l2 6v7l-3 9-8 7-10 3-5 1h-11l-13-4-8-6-5-10v-3h16l4 7 4 2h17l5-3 1-6-2-3-8-3-16-2-10-5-5-5-3-4-1-11 3-7 6-7 5-3z" fill="#FDFE57"/>
<path transform="translate(787,838)" d="m0 0h17l10 4 6 7 2 3v11l-6 7-4 1v3l6 2 5 5 1 2v12l-3 7-7 7-12 4h-13l-13-4-9-9-3-6v-8l15 1 5 10 14 2 8-3 3-6-2-6-3-2-16-1v-13l11-1 6-3 2-3-1-5-3-3-3-1h-12l-4 1-3 7h-15l1-6 6-9 7-4z" fill="#FDFE59"/>
<path transform="translate(380,271)" d="m0 0 2 1 1 5 10 13 6 8 5-2 11-8 9-5 2-1h6l-1 4-17 9-10 6 1 5 7 9-1 2-10-11-5 2-14 13h-2l-2 4h-2l-2 4h-2l-2 4-7 8 1 4 6 5 1 5-1 2-9 1h-10l-17 34v3l8 3 5 5 11 4v2l-9-2-14-6-4-2-6 25-2 11v11l4 2v3l-6 2v21l-2 5h-2v-5l-1-1h-10l-3 5-5 2-5-4-1-7 5-6 5-1 3 3 1 3 2 1h7v-22l2-5 4-26 6-20 3-8 8-16 10-17v-5h-2l-2-4 1-5 3-3 6 1 6 2 2-5 9-12 16-16 10-7-2-4-13-16-1-3-2-1z" fill="#FCFD62"/>
<path transform="translate(598,282)" d="m0 0 6 1 13 7 9 7 4 2 6-8 7-9 3 1-8 11-4 5h-2l3 5 14 12 6 5 11 14 5 7 18-2 1 5-4 7-4 3 1 4 11 19 4 9 2 5 5-1 7-5 6-2-5 5h-3v2l-4 1v2l-3 1 1 9 4 17 3 25 1 26-3 6-3-4 1-10v-11l-1-1-1-20-4-20-3-12h-4l-14 7-5 2-3-1 10-6 13-6-1-6-16-32-11 1-6-3 3-6 3-3-1-5-9-11-7-8-2-1v-2l-4-2-3-2v-2l-4-2-5-5h-4l-6 8-5 6-1-2 9-14 1-4-5-2-15-9-8-4z" fill="#FCFD61"/>
<path transform="translate(514,352)" d="m0 0 5 2 2 3 2 8-6 1 1 5 23 3 11 3 12 5 8 5 4 2 4 4 11 9 8 7v2l3-1-1-6-9-10-10-7v-2l5 2 10 9 5 5 6-1-1 7-2 2-2 5-13 10-7 6h-2l2-4 13-10 1-4-5-5-16-14h-5l-1 4-9 15-4 2 2-6 7-10 3-4v-5l-15-8-6-2h-5l-8 29h-2l2-11 4-14v-6l-22-2v9l-1 2h-2l-2-10h-14l-6 1 1 7 4 16 1 6h-2l-7-25v-3l-15 4-13 6 1 6 10 16 2 2v3l-3-1-10-17-4-6-9 6-11 9-4 5 7 8 8 6 1 3-4-2-10-9-4-4-4-1-2 5-3 2 1-4 6-7 5-3 9-8 8-6 5-2 1-3 15-7 14-4 1-1 13-2 12-1 1-5-12 1-21 4-21 9h-3l-2 4-6 2-1-18 4 2 5 5h7l8-4 12-4 2-2h9l14-2 1-1 1-7z" fill="#FCFD60"/>
<path transform="translate(72,605)" d="m0 0h1v243h9l4 2v-17l-1-22v-169l6-7 4-14 4-2 2 2v9l-12 12-2 6v87l1 74 1 24v15l-1 16-5 4-11 1-3-3-1-3v-9l3-6v-242zm3 250-2 5 5 3 3-3-1-5z" fill="#F6F896"/>
<path transform="translate(784,667)" d="m0 0 5 2-6 10-13 15-8 10h-2v2l-8 7-7 7-11 9-9 7-4 4h-2v2l-11 8-11 6-9 6-24 13-12 6-16 6-12 5-12 4-9 2h-8v-3l8-3 15-4 25-10 17-8 16-8 22-14 10-6 8-6 11-9 7-6 8-7 27-27 12-16z" fill="#FDFE5F"/>
<path transform="translate(239,669)" d="m0 0h6l8 9 8 11 23 23 11 9 17 14 14 10 30 18 23 11 13 6 15 6 14 4 10 3 2 4-1 1-9-1-12-3-12-5-13-5-17-8-16-8-15-8-19-12-7-6-4-2-5-5-11-8-14-12-15-15-12-14-8-10-2-5h-2z" fill="#FDFD5E"/>
<path transform="translate(650,666)" d="m0 0 15 1-3 4h-2l1 3 69 1 7 3v2l-5-1-66-1v4h2l5 5 3 2 27 3 6 4-1 2-8-3-16-2-3-1 3 9h2l5 5v2l4 2 1 3h2l5 5h-5l-4-4v-2h-2l-7-8-3-3v-2h-2l-2-4-2-1v-2l-4-2-5-4-5-7-5-4-6 4-3 4 5 5 1 3 5 5 5 6v2h2l1 3h-4v-2l-5-1 1 4v17l-3-1v-24l-5-9-5-7-4 1-14 8-19 9-5 2-5-1-1-7 11-5 23-11 5-3-2-4-3-4v-2l4 1 4 4 7-1 2-1z" fill="#FDFD5B"/>
<path transform="translate(363,495)" d="m0 0h2l4 16 3 2-1 4 6 17 5 8 7-2 8-4 6-4-1-11 2 2 3 7h6l-5-14-3-8-3-9 1-3 3 4 7 21 2 4 9-1 12-6-2 4-10 5-5 2-2 3-5 1-1 5 8 10 7 11 11 9 11 8 4 3h5l5 5 15 6 10 3 23 3 1 2-14-1-9-1-2 1-3 17-1 4h-2l4-24-7-1-15-5h-6l-9 11-3 3 4-16v-7l-4-2-11-8-14-14-4-8-1-3h-2l-3-4v-2l-14 4-10 3-1 3 5 7 4 7 11 14 6 6v2h2v2l3 1v2l5 2 8 7 12 8 17 7 10 4-4 1-10-2-11-5-13-8-12-9-10-9-10-11-8-10-5-8-7-15-6-13-4-15-4-14z" fill="#F8F977"/>
<path transform="translate(625,497)" d="m0 0h2l-2 10-4 12-4 11-5 2-1 5-7 11-18 18-12 8-15 7-15 5-12 3-14 2-1 3 1 2h6l2 2-7 2 3 4-1 4-4 2v2h-2l-1-2-5-2-1-3 3-4 3-9v-2h-9l-20-4-10-3-12-5-7-2-3-3-5-3v-2l-5-2-3-3v-2l-4-2-4-4v-2l-4-2-4-5v-2h-2l-4-8-1-4 3 1 6 10v2l4 1v4l4 2 4 4v2l4 2 8 7 6 4 3-1 10-17 4-4-1 5-11 17 1 3 14 6 9 3h6l3 2 9 1h12v-6l2 1v6l9-1 15-3 7-2 20-8 2-2-1-5-8-11-4-9v-3l4 2 4 9 9 14 5-2 10-8 8-8 2-4 5-4 6-10-1-4-12-6-1-2 7 2 7 3 5-1 5-13 2-8z" fill="#FCFD6C"/>
<path transform="translate(420,840)" d="m0 0h10l1 3-1 46-3 22-6 2-5-1v-49l1-3-9 1-2-2 1-6 11-10z" fill="#FDFD55"/>
<path transform="translate(584,74)" d="m0 0h5l1 3v80l-1 118-2 4-2-1-1-29z" fill="#FDFD62"/>
<path transform="translate(569,74)" d="m0 0h4l1 58v119l-1 2h-3l-1-2-1-11-1-93 1-71z" fill="#FCFD61"/>
<path transform="translate(489,666)" d="m0 0 4 1-1 12 5 3 2 4-1 7-5 4 1 96v24l-5 1-1-1v-118l-7-5-1-2 1-9 3-3 4-1z" fill="#FDFD5E"/>
<path transform="translate(441,74)" d="m0 0h3l1 22v109l1 44-1 21-2 3-3-1-1-144 1-52z" fill="#FCFD61"/>
<path transform="translate(832,721)" d="m0 0h9l11 4 6 5 5 10v13l-5 9-5 5-8 5h-13l-9-4-6-5-4-7-1-4v-11l3-9 5-5 5-4zm1 6-10 5-4 5-1 4v11l4 7 8 6 6 2 8-1 8-6 4-7v-11l-4-8-4-4-7-3z" fill="#FDFD5E"/>
<path transform="translate(457,74)" d="m0 0h3l1 9v29l1 13v25l-1 96-4 2-1-1-1-124 1-45z" fill="#FDFD62"/>
<path transform="translate(569,667)" d="m0 0h4l1 4v146l-1 2-5-1v-131l-8-1 4-2h4z" fill="#FCFD62"/>
<path transform="translate(537,667)" d="m0 0h4l1 25v122l-1 5-5-1-1-124-7-1v-1l7-1 1-23z" fill="#FBFC64"/>
<path transform="translate(504,667)" d="m0 0h4l1 7v18h8v2h-8l1 21v102l-1 2-5-1z" fill="#FCFD66"/>
<path transform="translate(395,666)" d="m0 0h3l-2 4-5 7 5 3 15 8 12 5 8 2 1 2v6l-1 2-9-2-21-9-15-9h-2l-8 10-11 14-12 13-6 8-4-1 6-8 8-8 4-5h2l2-4 10-12 4-6h2v-4l-16-11-2-4h10l11 7h5l2-4z" fill="#FDFD5B"/>
<path transform="translate(521,667)" d="m0 0h4l1 27v124l-5 1-1-1v-128z" fill="#FCFC62"/>
<path transform="translate(458,666)" d="m0 0 3 2v150h-5l-1-136 1-15z" fill="#FDFE62"/>
<path transform="translate(442,666)" d="m0 0 4 2v42l-1 30v16l1 21v39l-2 3-4-2v-131l1-19z" fill="#FCFC63"/>
<path transform="translate(105,123)" d="m0 0 2 4v243l-1 31-9 7-1 2h-2v2l-7 6-9 9h-2l-1 27 6 5 1 7-2 4-4 2h-7l-4-4-1-5 3-6 3-3h2v-24l9-10 23-23v-102zm-33 336-3 2v6l2 2 5-1 1-1v-6l-2-2z" fill="#F9FC9B"/>
<path transform="translate(553,667)" d="m0 0h4l1 17v4 130l-5 1-1-3v-130z" fill="#FDFD5E"/>
<path transform="translate(473,667)" d="m0 0h4v96l1 16-1 39h-5l-1-14 1-136z" fill="#FCFC64"/>
<path transform="translate(189,165)" d="m0 0h12l7 4 7 8 2 8v7l-3 9-6 6-7 3h-10l-10-5-6-7-2-8 1-10 4-7 8-7zm3 5-9 6-4 6v11l5 7 8 4h7l8-4 4-6 1-8-3-8-5-5-6-3z" fill="#FCFD65"/>
<path transform="translate(585,667)" d="m0 0h4l1 104-1 48-5-1v-137l-1-4 1-9z" fill="#FDFD62"/>
<path transform="translate(44,46)" d="m0 0h1l1 38 4 5 2 1v2l6 3v2h2v3l3 1-2 1-3-1v284h-2v-289h-2v-2l-4-2-6-4-1-2v-29z" fill="#F1F2AB"/>
<path transform="translate(474,74)" d="m0 0h3v44l1 6v23l-1 6v56l-1 10-1 2h-3l-1-82v-19l1-44z" fill="#FCFD5F"/>
<path transform="translate(507,458)" d="m0 0h11l8 7 2 10-2 5-7 6-7 1-8-3-5-6-1-2v-8l4-6z" fill="#FDFD55"/>
<path transform="translate(552,74)" d="m0 0h4l1 2 1 52v24l-1 77-3-1-1-3-1-87v-10l-1-6 1-6z" fill="#FDFD60"/>
<path transform="translate(72,605)" d="m0 0h1l1 244v4l3-2 5 4 1 5h-2l-1-4h-5l-1 4 3 2v2l-4 1v-2h-2l3 3 5-1v2h2l1-3h3l2-7h1v7l-5 4-11 1-3-3-1-3v-9l3-6v-242z" fill="#F5F685"/>
<path transform="translate(493,938)" d="m0 0h44l-2 6-12 22-7 11-4-2-12-23-7-10zm30 5-20 2 1 5 6 10 4 7h3l9-19 1-4z" fill="#FDFE68"/>
<path transform="translate(489,74)" d="m0 0h3l1 2 1 48v22l-1 46-4 2-1-1v-118z" fill="#FCFD61"/>
<path transform="translate(538,74)" d="m0 0 3 1 1 50v22l-1 50-3-1-2-10v-107z" fill="#FBFC68"/>
<path transform="translate(680,356)" d="m0 0 4 4 10 18 4 9 2 5 5-1 7-5 6-2-5 5h-3v2l-4 1v2l-3 1 1 9 4 17 3 25 1 26-3 6-3-4 1-10v-11l-1-1-1-20-4-20-3-12h-4l-14 7-5 2-3-1 10-6 13-6-1-6-8-16-8-17z" fill="#FCFD69"/>
<path transform="translate(90,128)" d="m0 0 3 2 1 3 1 71-1 186-8 7h-2l-1 3h-2v2h-2v2l-5 3 2-4 11-11 4-3v-258z" fill="#FBFE8D"/>
<path transform="translate(380,271)" d="m0 0 2 1 1 5 10 13 6 8 5-2 11-8 9-5 2-1h6l-1 4-17 9-10 6 1 5 7 9-1 2-10-11-5 2-14 13h-2l-2 4h-2l-2 4h-2l-2 4-8 9-3-1 7-11 11-12 10-10 10-7-2-4-13-16-1-3-2-1z" fill="#FAFB66"/>
<path transform="translate(69,156)" d="m0 0h1l1 228h2l-1 4-7 8h-2l-2 4-6 7h-2l2-4 7-8 5-6h2l-1-13v-218z" fill="#FBFD95"/>
<path transform="translate(663,495)" d="m0 0h2v7l-6 25-6 16-10 17-7 10-13 15-12 11-11 7-10 6-15 8h-8l3-3 12-5 17-10 14-10 13-13 9-11 8-12 5-10 4-7 5-14 2-12z" fill="#FAFC78"/>
<path transform="translate(348,338)" d="m0 0 6 1 8 3 5 5 4 5-1 5-9 1h-10l-13 26-2 3-3-4 8-16 7-12v-5h-2l-2-4 1-5z" fill="#FDFD58"/>
<path transform="translate(958,641)" d="m0 0h2v138l-2 27-2-1v-22l1-35-1-26v-38l1-31z" fill="#FCFE84"/>
<path transform="translate(921,604)" d="m0 0h1v240h-2v-237z" fill="#F7F76C"/>
<path transform="translate(528,373)" d="m0 0 13 1 11 3 12 5 8 5 4 2 4 4 11 9 8 7v2l3-1-1-6-9-10-10-7v-2l5 2 10 9 5 5 6-1-1 7-2 2-2 5-13 10-7 6h-2l2-4 13-10 1-4-5-5-16-14h-5l-1 4-9 15-4 2 2-6 7-10 3-4v-5l-15-8-6-2h-5l-8 29h-2l2-11 4-14v-6l-13-2z" fill="#FAFD88"/>
<path transform="translate(505,74)" d="m0 0 5 1v78l-2 7-2 3h-2v-87z" fill="#FCFD63"/>
<path transform="translate(995,641)" d="m0 0h1v228l-2-1v-226z" fill="#F6F78E"/>
<path transform="translate(971,95)" d="m0 0h2v224l-4 3v-3h2z" fill="#FAFD91"/>
<path transform="translate(102,707)" d="m0 0 2 1 1 26 6 4 3 3-1 7-4 5-5 1v86h-2l-1-85-5-4-1-2v-8l6-6zm0 33-2 3 1 5 4 2 4-3-1-5-2-2z" fill="#F8F973"/>
<path transform="translate(115,116)" d="m0 0 7 6v13l-2 12v254l-1 7h-1l-1-49v-122l1-99 1-15-4-4z" fill="#F5F79B"/>
<path transform="translate(659,672)" d="m0 0 2 2 69 1 7 3v2l-5-1-66-1v4h2l5 5 3 2 27 3 6 4-1 2-8-3-16-2-3-1 3 9h2l5 5v2l4 2 1 3h2l5 5h-5l-4-4v-2h-2l-7-8-3-3v-2h-2l-2-4-2-1v-2l-4-2-5-4-5-7-5-5z" fill="#FBFC6F"/>
<path transform="translate(499,334)" d="m0 0h18l19 1 18 4 15 5 10 5 1 2-8-1-11-5-7-2h-4l-7-3-18-2h-21l-16 2-6 2-2 2-5-1-12 3-14 6-3-1 5-4 13-5 13-4z" fill="#FDFE62"/>
<path transform="translate(500,372)" d="m0 0h12v3l-20 2 1 7 4 16 1 6h-2l-7-25v-3l-15 4-13 6 1 6 10 16 2 2v3l-3-1-10-17-4-6-9 6-11 9-4 5 7 8 8 6 1 3-4-2-10-9-4-4-4-1-2 5-3 2 1-4 6-7 5-3 9-8 8-6 5-2 1-3 15-7 14-4 1-1z" fill="#F9FC97"/>
<path transform="translate(946,614)" d="m0 0h1l1 219h-2l-1-24v-192z" fill="#F4F581"/>
<path transform="translate(50,674)" d="m0 0h7l6 6v7l-5 5 1 106v26l-2 1-1-66v-66l-9-3-2-4 1-9zm2 3-3 4v5l5 2 3-3v-5z" fill="#FBFD7E"/>
<path transform="translate(81,172)" d="m0 0 2 3v53l-1 32v122l-2 1v-167z" fill="#EBEBAA"/>
<path transform="translate(849,64)" d="m0 0h67l6 7 2 1v2l4 1 4 2v2l5 2 21 21v50h-2l-1-48-20-20-15-10-6-7-5-1h-22l-48 1v-2z" fill="#F9FBA3"/>
<path transform="translate(520,74)" d="m0 0 5 2 1 49v21l-1 23-3-3-1-3-1-21z" fill="#FDFD5F"/>
<path transform="translate(971,642)" d="m0 0h1v119l-1 43h-2v-148l1-11z" fill="#FDFE56"/>
<path transform="translate(686,340)" d="m0 0h3l1 5-4 7-6 5-8 2h-5l-6-3 3-6 3-3 1-5h9z" fill="#FDFE5A"/>
<path transform="translate(882,459)" d="m0 0 5 1 5 6 2 4-1 4-5 9-8-1-7-10 2-6 4-6z" fill="#FDFE57"/>
<path transform="translate(933,594)" d="m0 0h1l1 304-1 10-2-1v-290z" fill="#FBFE98"/>
<path transform="translate(956,184)" d="m0 0 2 1v106l-11 9-7 8-3 3h-2l-1 3h-2v2l-4 4-1 12-2-1v-10l2-5 8-7 1-2h2v-2l3-3h2l2-4 3-1 1-3h2v-2l4-3z" fill="#FAFD93"/>
<path transform="translate(982,642)" d="m0 0h1v313h-1l-1-32z" fill="#FBFE98"/>
<path transform="translate(417,532)" d="m0 0 3 1 6 10v2l4 1v4l4 2 4 4v2l4 2 8 7 6 4 3-1 10-17 4-4-1 5-11 17 1 3 14 6 9 3h6l3 2 9 1-1 3-8-1-17-4-16-7-5-1-3-3-5-3v-2l-5-2-3-3v-2l-4-2-4-4v-2l-4-2-4-5v-2h-2l-4-8z" fill="#FCFE7E"/>
<path transform="translate(141,460)" d="m0 0h5l6 5 4 7h-2l-1 4-1 3-4 3h-6l-5-4-4-7 4-5z" fill="#FDFD5A"/>
<path transform="translate(940,157)" d="m0 0h10l6 6 1 3v7l-3 5-4 3h-9l-5-5-2-4 1-8 3-5zm4 5-5 5v5l5 5 5-2 2-3v-7l-3-3z" fill="#FCFE8D"/>
<path transform="translate(44,184)" d="m0 0h1l1 40 1 9v142h-1l-1-11v-85l-1-41z" fill="#FAFC9C"/>
<path transform="translate(957,855)" d="m0 0h1l1 8v32l-1 25-7 10-1 2h-2l-2 4-4 4h-2v2l-8 7-5 6-4 3 1-4 4-6h2l2-4 4-4h2v-2l5-2 2-5 9-11h2v-58z" fill="#FCFE84"/>
<path transform="translate(450,579)" d="m0 0h7l5 5 15 6 10 3 23 3 1 2-14-1-9-1-2 1-3 17-1 4h-2l4-24-7-1-15-5h-6l-9 11-3 3 4-16z" fill="#FCFD62"/>
<path transform="translate(838,736)" d="m0 0 7 3 3 5-1 8-5 4-7 1-6-5-1-2v-7l5-6zm-3 7-1 5 4 2 3-2-1-4z" fill="#FCFD61"/>
<path transform="translate(602,558)" d="m0 0h2l-2 4-7 9-3 3-9 5 1 5 3 6v5l-3-1-6-9h-6l-8 4-14 5h-4l2 7v5l-2-1-3-8h-15l2-2 13-2 17-6 11-5 6-4 8-4 10-8z" fill="#FCFD5E"/>
<path transform="translate(86,792)" d="m0 0h1l2 41v15l-2 12-2 5h-3l-1 2-3-1-5 1-2-4h2v2l6-4 4-1-3-6-3-2-3 2-2-2 2-4h8l4 2v-17l-1-22v-18z" fill="#FBFD8F"/>
<path transform="translate(214,755)" d="m0 0 38 1-1 2-34 1-1 63h-1v-64h-61l2-2z" fill="#F7F882"/>
<path transform="translate(515,580)" d="m0 0 2 1v6l9-1h11l-1 2-18 3-1 3 1 2h6l2 2-7 2 3 4-1 4-4 2v2h-2l-1-2-5-2-1-3 3-4 3-9v-2h-9l-3-1v-2l13-1z" fill="#FCFD64"/>
<path transform="translate(941,186)" d="m0 0 2 1 1 84-4 5-8 7-7 6-7 8-2 2h-3l2-4 13-12 10-10 2-1 1-7z" fill="#FCFE8E"/>
<path transform="translate(508,363)" d="m0 0h3v2l-14 3-17 3-21 9h-3l-2 4-6 2-1-18 4 2 5 5h7l8-4 12-4 2-2h9z" fill="#FAFC84"/>
<path transform="translate(969,848)" d="m0 0 2 2v77l-3 5-6 5h-2l-2 4-3 1-1 3h-2v2l-7 6h-2v-2h2l1-3h2v-2h2l1-3h2l1-3h2v-2h2v-2l8-6h2z" fill="#FDFE57"/>
<path transform="translate(958,809)" d="m0 0h10l5 4 1 8-5 6h-8l-5-5-1-2v-6zm3 5-1 1v6l4 2 4-4-2-5z" fill="#FCFE86"/>
<path transform="translate(293,155)" d="m0 0h7l5 5 1 5-4 7h-8l-5-3-1-2 1-9zm2 6v4l4 1 1-3-1-2z" fill="#FDFD60"/>
<path transform="translate(72,134)" d="m0 0 4 1 6 5v8l-2 3-8 3-5-1-3-3v-10l5-4zm0 5-3 2v5l5 2 4-3-2-4z" fill="#FBFD86"/>
<path transform="translate(959,724)" d="m0 0h1v55l-2 27-2-1v-22l1-35v-20z" fill="#FDFE66"/>
<path transform="translate(74,438)" d="m0 0h1v16l6 5 1 7-2 4-4 2h-7l-4-4-1-5 3-6 3-3h2v-11zm-2 21-3 2v6l2 2 5-1 1-1v-6l-2-2z" fill="#FCFD66"/>
<path transform="translate(582,385)" d="m0 0 5 2 10 9 5 5 6-1-1 7-2 2-2 5-13 10-7 6h-2l2-4 13-10 1-4-5-5-8-7-5-4v-2l4 1 15 13 1 3 3-1-1-6-9-10-10-7z" fill="#FDFE65"/>
<path transform="translate(316,259)" d="m0 0h8l5 4v8l-3 3-7 1-5-4-1-2v-6z" fill="#FDFD57"/>
<path transform="translate(625,497)" d="m0 0h2l-2 10-4 12-4 11-5 2-1 5-7 11-4 3-3-1 2-4 5-4 6-10-1-4-12-6-1-2 7 2 7 3 5-1 5-13 2-8z" fill="#FBFD71"/>
<path transform="translate(406,581)" d="m0 0 4 1v2h2v2l3 1v2l5 2 8 7 12 8 17 7 10 4-4 1-10-2-11-5-13-8-12-9-10-9-2-3z" fill="#FCFC68"/>
<path transform="translate(90,128)" d="m0 0 3 2 1 3 1 71-1 18-2 1-1-92z" fill="#FAFC9C"/>
<path transform="translate(731,156)" d="m0 0 6 1 4 5 1 8-2 3h-10l-3-3-1-2v-7zm1 7-1 4 5 1 1-4z" fill="#FCFD5F"/>
<path transform="translate(743,276)" d="m0 0 5 1 3 5-2 7-2 3h-6l-5-5-1-6 2-3z" fill="#FCFD5B"/>
<path transform="translate(838,195)" d="m0 0 6 2 3 3v9l-5 4-6-1-4-3-1-7 2-4zm-1 6-1 1v5l4 1 2-2-1-5z" fill="#FDFE68"/>
<path transform="translate(927,566)" d="m0 0 6 1 3 3v7l-2 4-4 1h-8l-4-3v-7l5-5zm0 4-4 3v5l5 1 3-3-1-5z" fill="#FDFE61"/>
<path transform="translate(299,462)" d="m0 0 4 1 3 5-1 8-5 4-5-2-3-4 1-7z" fill="#FDFD5A"/>
<path transform="translate(71,838)" d="m0 0h2l1 11v4l3-2 5 4 1 5h-2l-1-4h-5l-1 4 3 2v2l-4 1v-2h-2l3 3 5-1v2h2l1-3h3l2-7h1v7l-5 4-11 1-3-3-1-3v-9l3-6z" fill="#FCFF94"/>
<path transform="translate(795,463)" d="m0 0 5 1 4 5-1 5-4 6h-5l-4-5v-7z" fill="#FCFD5D"/>
<path transform="translate(677,675)" d="m0 0h53l7 3v2l-5-1-55-1z" fill="#FDFD5B"/>
<path transform="translate(954,593)" d="m0 0h9l2 1 1 9-3 3-2 1h-6l-4-5 1-7z" fill="#FCFD60"/>
<path transform="translate(69,326)" d="m0 0h1l1 58h2l-1 4-7 8h-2l-2 4-6 7h-2l2-4 7-8 5-6h2l-1-13v-49z" fill="#FBFE89"/>
<path transform="translate(295,748)" d="m0 0 6 1 2 2v11l-3 2h-8l-3-3-1-7 4-5zm-1 6-1 4 2 2h3l1-4-2-2z" fill="#FCFD5F"/>
<path transform="translate(725,463)" d="m0 0h5l5 6-1 5-5 5-5-1-4-6 2-6z" fill="#FDFE60"/>
<path transform="translate(81,172)" d="m0 0 2 3v53l-1 24-2-3v-33z" fill="#FBFD92"/>
<path transform="translate(613,591)" d="m0 0v3l-6 5-7 4-10 6-15 8h-8l3-3 12-5 17-10 9-6z" fill="#FCFD66"/>
<path transform="translate(263,506)" d="m0 0h2l-2 4-15 15-7 8-12 12-4 2 1-4 16-17 14-14 5-4h2z" fill="#FBFC67"/>
<path transform="translate(381,681)" d="m0 0h2l1 4-8 10-11 14-12 13-6 8-4-1 6-8 8-8 4-5h2l2-4 10-12 4-6h2z" fill="#FBFE7F"/>
<path transform="translate(408,422)" d="m0 0 4 1v2l5 1 5 5 10 4 3 2v2l-5-1-8-4-7-3-3 5-8 28-2 1 1-8 5-18 3-7v-5l-4-2z" fill="#FAFB80"/>
<path transform="translate(402,496)" d="m0 0 4 4 7 21 2 4 9-1 12-6-2 4-10 5-5 2-2 3-5 1-3 1-1-3 5-1-5-14-3-8-3-9z" fill="#F9FC90"/>
<path transform="translate(707,437)" d="m0 0h2l2 9 1 26-3 6-3-4 1-10v-11l-1-1z" fill="#FCFD64"/>
<path transform="translate(623,423)" d="m0 0 2 2-6 3 3 9 5 17v7l-2-2-6-20-2-4v-3h-5l-3 3-10 5h-3v-2l13-7 4-1 1-4z" fill="#FCFE88"/>
<path transform="translate(730,749)" d="m0 0h6l4 4 1 7-4 4h-7l-3-6 1-7zm3 6-1 5h4l-1-5z" fill="#FDFD5D"/>
<path transform="translate(426,282)" d="m0 0h6l-1 4-17 9-9 5h-2l1-4 11-8 9-5z" fill="#FCFD61"/>
<path transform="translate(830,49)" d="m0 0h91v2h3l3 3v2h2l5 6-3 1-1-3h-2v-2l-4-2-4-4v-2l-79 1h-11z" fill="#F7F8BA"/>
<path transform="translate(644,682)" d="m0 0 4 1 5 5 1 3 5 5 5 6v2h2l1 3h-4v-2l-5-1 1 4v17l-3-1v-24l-5-9-5-7z" fill="#FBFC6F"/>
<path transform="translate(256,357)" d="m0 0 5 1 1 3v7l-2 2-6 1-5-3-1-5 5-5z" fill="#FAFA5F"/>
<path transform="translate(193,180)" d="m0 0 4 1 5 6-1 4-5 5-5-2-2-3v-7z" fill="#FCFD5F"/>
<path transform="translate(978,619)" d="m0 0h8l2 2v8l-3 3h-6l-4-4 1-7z" fill="#FDFE66"/>
<path transform="translate(956,618)" d="m0 0h9l2 4-1 8-1 1h-8l-3-5 1-7z" fill="#FDFD62"/>
<path transform="translate(457,74)" d="m0 0h3l1 9v15l-1 9h-2l-2 3v-32z" fill="#FDFE67"/>
<path transform="translate(817,78)" d="m0 0h41l29 1v1l-72 1h-20v-2z" fill="#F6F7AA"/>
<path transform="translate(598,282)" d="m0 0 6 1 13 7 9 7 1 2-1 2-5-2-15-9-8-4z" fill="#FDFE60"/>
<path transform="translate(544,365)" d="m0 0 4 2 8 3 10 4 8 5 4-2 6-9 2-1-2 6-6 12-4-1-5-5-14-7-16-4-7-1v-1z" fill="#FBFE91"/>
<path transform="translate(766,510)" d="m0 0h2v2l4 2 4 3v2l4 2 6 5v2l4 2 7 9 5 5v2l-4-1-7-7v-2l-3-1-7-8-14-14z" fill="#FBFC69"/>
<path transform="translate(258,302)" d="m0 0 5 2 14 7 11 6 14 8v2l-4-1-34-17-6-5z" fill="#FCFD6F"/>
<path transform="translate(409,535)" d="m0 0 4 5 7 10 6 9 11 9 11 8 3 3-1 2h-2v-2l-4-2-11-8-14-14-4-8-1-3h-2l-5-8z" fill="#F9FA86"/>
<path transform="translate(688,223)" d="m0 0 3 2-6 7-10 13-8 11-10 12-3-1 4-6 13-15 8-11z" fill="#FBFD77"/>
<path transform="translate(61,927)" d="m0 0h2l5 6v2l3 1v2h2l3 3v2l4 2 1 3 3 1v2h2v2l3 1v2l4 2 4 3v2l3 1v2l6 3v2l3 1-3 1-4-3v-2l-5-2-13-13-2-1v-2h-2l-4-5-2-1v-2h-2l-7-8-4-5z" fill="#F9FBA6"/>
<path transform="translate(64,544)" d="m0 0h6l5 4 1 6-3 5-6 2-7-5-1-7zm2 3-3 2v6l3 2 5-1 2-3-1-5z" fill="#FBFC75"/>
<path transform="translate(57,838)" d="m0 0h2v84l2 5h-2l-3-4v-32z" fill="#FBFD9A"/>
<path transform="translate(243,320)" d="m0 0 6 1 23 10 14 7 1 2h-5l-13-6-23-10z" fill="#FBFC72"/>
<path transform="translate(538,336)" d="m0 0 13 2 18 6 10 5 1 2-8-1-11-5-7-2h-4l-7-3-5-1z" fill="#FAFB74"/>
<path transform="translate(727,594)" d="m0 0 4 2 4 4 2 3v5l3 1 5 8 1 2h-8v-2h2l-8-8-1-2-5-2v-4l4 1 2 2-2-5z" fill="#FBFC6D"/>
<path transform="translate(240,707)" d="m0 0 7 1 4 4v5l-3 2-4-1-4 1-3-3v-6z" fill="#FDFD5A"/>
<path transform="translate(56,36)" d="m0 0 2 1 1 39 1 3 3 1v2h2v2l3 1 6 7v2l-3-1v-2h-2v-2l-3-1v-2h-2v-3l-4-2-1-3-3-1-1-3z" fill="#F7F8C5"/>
<path transform="translate(66,412)" d="m0 0h2l-2 4-4 4h-2l-1 4-1 44h-2l-1-20 1-26 6-6h2v-2h2z" fill="#F6F785"/>
<path transform="translate(102,400)" d="m0 0h3v2l-8 6-1 2h-2v2l-7 6-9 9h-2l-1 11-2 5h-1v-13l9-10 19-19z" fill="#F7FA93"/>
<path transform="translate(969,746)" d="m0 0h2l1 5-1 53h-2z" fill="#FDFE63"/>
<path transform="translate(575,580)" d="m0 0 1 4-11 4-15 6h-4l2 7v5l-2-1-3-8h-15l2-2 13-2 17-6 11-5z" fill="#FAFC84"/>
<path transform="translate(251,312)" d="m0 0 6 1 19 9 12 7 9 4v2l-5-1-16-8-21-10z" fill="#FDFE63"/>
<path transform="translate(468,587)" d="m0 0 19 6 23 3 1 2-14-1-9-1-2 1-3 17-1 4h-2l4-24-7-1-11-4z" fill="#FAFD86"/>
<path transform="translate(953,922)" d="m0 0 1 4-4 6h-2l-2 4-4 4h-2v2l-8 7-5 6-4 3 1-4 4-6h2l2-4 4-4h2v-2l5-2 2-5z" fill="#FCFE86"/>
<path transform="translate(171,768)" d="m0 0h7l5 5v8l-5 5-7 1-5-3-1-2v-8l4-5zm0 2-3 3v9l4 3 6-1 3-4-1-7-3-3z" fill="#FAFC8D"/>
<path transform="translate(561,382)" d="m0 0 4 1 11 6 4 5h-3l-4-1h-2l-1 4-9 15-4 2 2-6 7-10 3-4v-5l-9-5z" fill="#FBFD85"/>
<path transform="translate(73,849)" d="m0 0 9 1 4 3 1 7-2 5h-3l-1 2-3-1-5 1-2-4h2v2l6-4 4-1-3-6-3-2-3 2-2-2z" fill="#FDFE52"/>
<path transform="translate(417,532)" d="m0 0 3 1 6 10v2l4 1v4l4 2 4 4v2l4 2 7 6-1 2-5-2-3-3v-2l-4-2-4-4v-2l-4-2-4-5v-2h-2l-4-8z" fill="#F6F88F"/>
<path transform="translate(500,372)" d="m0 0h12v3l-20 2 1 7 4 16 1 6h-2l-8-28-1-2h2v-2z" fill="#FCFE76"/>
<path transform="translate(87,870)" d="m0 0h1l1 37 10 11v2l4 2 1 3-4-2-8-8-3-4v-2h-2l-2-5v-10l1-20z" fill="#FAFC97"/>
<path transform="translate(232,503)" d="m0 0h2l-1 7v6l-2 2h-7l-2-2 1-7 4-3z" fill="#FCFC64"/>
<path transform="translate(663,495)" d="m0 0h2v7l-6 25-5 13-3-1 6-17 2-12z" fill="#FCFE78"/>
<path transform="translate(759,519)" d="m0 0 7 4 10 10v2h2l8 10v2h2l7 8 6 7-1 2-13-13-9-11-9-10v-2l-4-2-6-5z" fill="#F8FA91"/>
<path transform="translate(92,352)" d="m0 0 2 2v36l-8 7h-2l-1 3h-2v2h-2v2l-5 3 2-4 11-11 4-3z" fill="#FCFE83"/>
<path transform="translate(951,96)" d="m0 0 6 4 1 2v50h-2l-1-48-4-6z" fill="#FAFC9F"/>
<path transform="translate(264,293)" d="m0 0 6 2 9 6 12 6 5 4 8 4v2l-9-3-21-12-10-7z" fill="#FDFE6B"/>
<path transform="translate(447,368)" d="m0 0 4 2 7 6 5 1-1 2-6 1-2 4-6 2z" fill="#FDFD5E"/>
<path transform="translate(962,809)" d="m0 0h6l5 4 1 8-6 4h-6l5-6-1-6h-7v-2z" fill="#FCFE81"/>
<path transform="translate(515,580)" d="m0 0 2 1v6l9-1h11l-1 2-18 3-2 1-2-1-12-2v-2l13-1z" fill="#FDFE6E"/>
<path transform="translate(270,284)" d="m0 0 5 2 22 14 4 2v2l5 2 2 1v2l-5-2-21-12-12-9z" fill="#FCFD6B"/>
<path transform="translate(377,225)" d="m0 0h5l3 3v6l-2 3-7-1-2-2v-6z" fill="#FCFD5E"/>
<path transform="translate(240,330)" d="m0 0 5 1 18 7 13 6 9 4v2l-9-3-20-8-12-5-4-2z" fill="#FBFD85"/>
<path transform="translate(626,522)" d="m0 0 1 4-1 6 8 6 10 5-4 1-17-6-3-2 1-4z" fill="#FCFD6D"/>
<path transform="translate(392,487)" d="m0 0 3 3 5 21 2 8-3-2-3-9-11 2-6 2h-7l3-2 14-4 6-2-2-12z" fill="#FBFD8A"/>
<path transform="translate(327,210)" d="m0 0 5 1 7 9 11 15 8 10v2h-2l-11-14-18-22z" fill="#F6F88B"/>
<path transform="translate(570,571)" d="m0 0 4 2-4 3-11 5-15 5-7 1-4-2 10-3 11-3 14-6z" fill="#FBFD84"/>
<path transform="translate(940,158)" d="m0 0h7l5 3v2h2l2 9-3 5h-3v2h-2l1-6 1-1v-7l-2-2-5-1-3 1-1-3z" fill="#FDFE71"/>
<path transform="translate(474,793)" d="m0 0h2l1 25h-5l-1-14 2-10z" fill="#FDFD57"/>
<path transform="translate(772,49)" d="m0 0h37l5 1h10l2 2h-20l-34-1z" fill="#FAFD96"/>
<path transform="translate(205,121)" d="m0 0 22 1v3h-33l-9-1 1-2h18z" fill="#F6F898"/>
<path transform="translate(145,945)" d="m0 0 73 1v1l-85 1-1-2z" fill="#F9FBA5"/>
<path transform="translate(946,860)" d="m0 0h1v48l-2 2-1-7 1-41z" fill="#FBFD86"/>
<path transform="translate(97,619)" d="m0 0 4 2v9l-5 5-5 1 4-15z" fill="#FCFD61"/>
<path transform="translate(645,227)" d="m0 0h6l2 1 1 6-2 3-6 1-4-4 2-6z" fill="#FDFD5C"/>
<path transform="translate(794,64)" d="m0 0h24l1 2-22 1-5 1h-18v-2z" fill="#F9FC94"/>
<path transform="translate(994,564)" d="m0 0h2v50l-2-2z" fill="#EBECA0"/>
<path transform="translate(363,495)" d="m0 0h2l4 16 3 2-1 4 6 17 3 7h-3l-6-13-4-15-4-14z" fill="#FAFC91"/>
<path transform="translate(77,922)" d="m0 0 7 6 5 5v2h2l5 6v2l3 1v2h2v2l4 2 5 4v2l-4-2-6-4-5-5-1-3h-2v-3h-2v-2l-3-1-7-8-3-4z" fill="#F8FAAB"/>
<path transform="translate(402,521)" d="m0 0 2 2 6 12-2 3-5 2-8-1 5-5 3-2z" fill="#FDFD65"/>
<path transform="translate(659,672)" d="m0 0 2 2 16 1v3h-11v4h2l9 9-3 1-7-6-5-7-5-5z" fill="#FBFE88"/>
<path transform="translate(958,641)" d="m0 0h2v34h-2l-1 2v-24z" fill="#FDFE63"/>
<path transform="translate(959,511)" d="m0 0 5 1 4 5-1 5-4 3-7-1-1-8zm1 4-3 2 1 5 5-1 3-2v-2z" fill="#FCFE88"/>
<path transform="translate(394,538)" d="m0 0 4 2-6 3-8 3 4 10v3l-3-1-6-13v-4l5 1z" fill="#FCFD6A"/>
<path transform="translate(436,403)" d="m0 0 3 1-6 7 7 8 8 6 1 3-4-2-10-9-4-4-4-1-2 5-3 2 1-4 6-7 5-3z" fill="#F9FB8B"/>
<path transform="translate(507,334)" d="m0 0 29 1 3 3-3 1-19-1-9-1z" fill="#FDFE6E"/>
<path transform="translate(44,46)" d="m0 0h1l1 38 5 6-1 2-6-4-1-2v-29z" fill="#F9FBC2"/>
<path transform="translate(969,921)" d="m0 0h2l-1 9-8 7h-2l-2 4-3 1-1 3h-2v2l-7 6h-2v-2h2l1-3h2v-2h2l1-3h2l1-3h2v-2h2v-2l8-6h2z" fill="#FBFD96"/>
<path transform="translate(115,116)" d="m0 0 7 6v13l-2 12-1 16h-1v-25l1-15-4-4z" fill="#F9FB99"/>
<path transform="translate(942,109)" d="m0 0h1v43l-2 1v-43z" fill="#FAFC9F"/>
<path transform="translate(929,910)" d="m0 0 3 1h-2l-1 3h-2l-1 3h-2v2h-2l-1 3h-2v2l-3 3h-2v2l-3 3h-2v2l-3 3h-2l-1 3h-2l1-4 3-3h2l1-3h2v-2l3-3h2v-2l3-3h2v-2l8-7z" fill="#FCFE81"/>
<path transform="translate(377,558)" d="m0 0h2l-1 3h-2l-2 4-4 4-11 6-5 1 5-5 11-8z" fill="#F9FA75"/>
<path transform="translate(956,887)" d="m0 0 3 1-1 32-4 4-1-3 3-1z" fill="#FBFD80"/>
<path transform="translate(515,564)" d="m0 0 6 4 1 3-3 3-4 2-5-4-1-3z" fill="#FBFC5F"/>
<path transform="translate(557,543)" d="m0 0 4 2 4 9 9 14-3 2-7-11-6-10z" fill="#FBFD7C"/>
<path transform="translate(512,289)" d="m0 0 6 1 2 2-1 5-1 1h-7l-2-2 1-5z" fill="#FDFE63"/>
<path transform="translate(80,216)" d="m0 0 3 1-1 35-2-3z" fill="#FAFD99"/>
<path transform="translate(782,207)" d="m0 0h6l2 4-4 5-4 1-4-5 2-4z" fill="#FCFD5D"/>
<path transform="translate(153,122)" d="m0 0h30l1 2-6 1h-26z" fill="#FAFC88"/>
<path transform="translate(76,851)" d="m0 0 6 4 1 5h-2l-1-4h-5l-1 4 3 2v2l-4 1v-2l-4-2 1-8h5z" fill="#FCFE71"/>
<path transform="translate(381,681)" d="m0 0h2l1 4-8 10-10 13h-3l2-4 10-12 4-6h2z" fill="#F9FC94"/>
<path transform="translate(602,558)" d="m0 0h2l-2 4-7 9-3 3-9 5h-5v-2l7-3 10-8z" fill="#F8FA8A"/>
<path transform="translate(264,522)" d="m0 0 2 1-1 2h-2l-2 4-11 12h-2l-1 3h-2l-2 4-3 1 1-3h2l2-4 6-7h2l1-3h2l2-4z" fill="#FAFC8B"/>
<path transform="translate(393,466)" d="m0 0h2l-1 4-6 4h-2l-2 5-4-2v-4l4-4 9-1z" fill="#FCFD6D"/>
<path transform="translate(513,389)" d="m0 0 7 1 2 4-4 3-6-1-3-1 1-4z" fill="#FBFC60"/>
<path transform="translate(413,430)" d="m0 0v3l-9 31-2 1 1-8 5-18 3-7z" fill="#FCFE8A"/>
<path transform="translate(276,277)" d="m0 0 5 1 11 7 6 4 1 2 3 1v2l-4-1-17-11z" fill="#FBFC77"/>
<path transform="translate(935,276)" d="m0 0 3 1-22 22h-3l2-4 13-12z" fill="#FBFD88"/>
<path transform="translate(626,576)" d="m0 0 2 1-2 5-9 9-8 3 1-3 8-7z" fill="#FAFB6C"/>
<path transform="translate(943,300)" d="m0 0 1 3-4 5-3 3h-2l-1 3h-2v2l-4 4-1 12-2-1v-10l2-5 8-7 1-2h2v-2l3-3h2z" fill="#F9FB8F"/>
<path transform="translate(644,469)" d="m0 0 4 1 4 4-2 4-2 3h-2l-2-5-4-5z" fill="#FBFB66"/>
<path transform="translate(939,158)" d="m0 0 2 4 3-1v2l-4 4-1 4h-2l1 3 3 6-4-2-3-6 1-8 3-5z" fill="#FBFE97"/>
<path transform="translate(611,530)" d="m0 0 3 1-2 1-1 5-7 11-4 3-3-1 2-4 5-4 6-10z" fill="#FAFC86"/>
<path transform="translate(707,437)" d="m0 0h2l2 9v10l-3-1-2-3z" fill="#FDFE57"/>
<path transform="translate(69,382)" d="m0 0h2v2h2l-1 4-7 8h-2l-2 4-6 7h-2l2-4 7-8 5-6h2z" fill="#F7F992"/>
<path transform="translate(891,49)" d="m0 0h30v2h3l3 3v2h2l5 6-3 1-1-3h-2v-2l-4-2-4-4v-2h-29z" fill="#F8FAB5"/>
<path transform="translate(680,693)" d="m0 0 4 8h2l5 5v2l4 2 1 3h2l5 5h-5l-4-4v-2h-2l-7-8-3-3v-2h-2l-2-5z" fill="#F7F98E"/>
<path transform="translate(650,540)" d="m0 0h3l-1 4-8 14-3 1 1-5 6-11z" fill="#FBFC68"/>
<path transform="translate(941,953)" d="m0 0h2v2l-10 8-6 5h-2l-2 4-5 4h-2l2-4 7-6h2v-2l9-7z" fill="#FCFE86"/>
<path transform="translate(57,895)" d="m0 0h1l1 27 2 5h-2l-3-4v-27z" fill="#FBFE89"/>
<path transform="translate(68,545)" d="m0 0 5 1 3 4-1 7-5 3-3 1v-3l-2-1 6-2 1-7-4-1z" fill="#FDFE6A"/>
<path transform="translate(959,331)" d="m0 0 1 4-1 2-1 27-2 1v-27z" fill="#EFF092"/>
<path transform="translate(380,271)" d="m0 0 2 1 1 5 10 13 6 8-1 2-8-9-8-10-1-3-2-1z" fill="#F9FB98"/>
<path transform="translate(264,329)" d="m0 0 6 1 8 4 9 5v1h-5l-13-6-4-2z" fill="#FCFD67"/>
<path transform="translate(225,105)" d="m0 0h7l6 1 6-1 1 4-7 1-13-2z" fill="#F5F787"/>
<path transform="translate(643,282)" d="m0 0 3 1-8 11-4 5h-2l-1 3-1-3 6-8z" fill="#FCFD6B"/>
<path transform="translate(56,66)" d="m0 0h2l1 10 1 3 3 1v2h2v2l3 1 6 7v2l-3-1v-2h-2v-2l-3-1v-2h-2v-3l-4-2-1-3-3-1-1-3 1-7z" fill="#F7F9BA"/>
<path transform="translate(239,470)" d="m0 0h22l11 1v2h-14l-19-1z" fill="#FAFC89"/>
<path transform="translate(579,394)" d="m0 0 4 1 15 13v4l-7-6-12-10z" fill="#F6F784"/>
<path transform="translate(406,581)" d="m0 0 4 1v2h2v2l3 1v2l5 2v5l-8-6-7-7z" fill="#FCFC5C"/>
<path transform="translate(853,584)" d="m0 0 10 1 8 3-1 3-16-4z" fill="#F9F96F"/>
<path transform="translate(585,367)" d="m0 0 1 2-8 16-4-1v-4l5-4 5-8z" fill="#FDFE66"/>
<path transform="translate(215,699)" d="m0 0h2l-1 54h-1z" fill="#EDEDA0"/>
<path transform="translate(444,609)" d="m0 0 5 1 18 7-4 1-10-2-8-4z" fill="#FCFD6F"/>
<path transform="translate(435,518)" d="m0 0v3l-6 4-10 4-2 3h-3v-5l12-4 8-4z" fill="#FCFE7C"/>
<path transform="translate(274,322)" d="m0 0 5 2 15 8 3 1v2l-5-1-16-8-5-2z" fill="#FAFC8F"/>
<path transform="translate(970,719)" d="m0 0h1l1 32h-1v-5h-2v-24z" fill="#FDFE6F"/>
<path transform="translate(458,387)" d="m0 0 1 3-7 4-12 9-3-1 8-6 4-4z" fill="#FAFB7E"/>
<path transform="translate(92,382)" d="m0 0 2 2v6l-8 7h-2l-1 3h-2v2h-2v2l-5 3 2-4 11-11 4-3z" fill="#F4F69A"/>
<path transform="translate(850,594)" d="m0 0 9 2 7 3-1 3-12-3-3-2z" fill="#FDFE62"/>
<path transform="translate(561,382)" d="m0 0 4 1 11 6 4 5h-3l-6-3-9-6-2-2z" fill="#FAFC8B"/>
<path transform="translate(464,342)" d="m0 0 5 1-4 2-16 7-3-1 5-4z" fill="#FCFE7A"/>
<path transform="translate(164,320)" d="m0 0h8l7 3 1 3-9-1-7-3z" fill="#F9FA6A"/>
<path transform="translate(71,872)" d="m0 0h2v28l-2 1z" fill="#FAFC9C"/>
<path transform="translate(664,707)" d="m0 0 5 1 8 10v2l-4-1-9-10z" fill="#FCFC5F"/>
<path transform="translate(170,309)" d="m0 0h8l5 2v4l-3 1-10-5z" fill="#FCFC5D"/>
<path transform="translate(688,223)" d="m0 0 3 2-6 7-10 13-2-2 13-17z" fill="#FAFC8E"/>
<path transform="translate(86,792)" d="m0 0h1l1 27h-2l-1-8v-18z" fill="#FCFE77"/>
<path transform="translate(857,574)" d="m0 0 8 1 7 2 2 3-3 1-14-4z" fill="#FDFE68"/>
<path transform="translate(445,387)" d="m0 0 2 1-15 13-4 4h-3v-4l5-2 6-5h2v-2z" fill="#F6F88D"/>
<path transform="translate(79,99)" d="m0 0 4 2 5 4 3 3v2h3v2l4 2 4 4v2l-3-1v-2l-4-2-5-4v-2l-6-3v-2h-2v-2l-3-1z" fill="#F7F9B5"/>
<path transform="translate(944,910)" d="m0 0 1 4-3 3h-2l-2 4-7 8-6 4 1-3h2l2-4 13-14z" fill="#FBFE8E"/>
<path transform="translate(46,677)" d="m0 0 2 1-1 2 3 1v5l2 1v5l-5-2-2-4z" fill="#FCFE73"/>
<path transform="translate(969,746)" d="m0 0h2l1 5v10l-2 10h-1z" fill="#FDFE56"/>
<path transform="translate(794,693)" d="m0 0 5 2 4 4-2 2-8-1-1-4z" fill="#FCFD61"/>
<path transform="translate(489,377)" d="m0 0h2l5 20 2 9h-2l-7-25z" fill="#F9FC8F"/>
<path transform="translate(230,121)" d="m0 0 8 1h9 3v3h-17-3z" fill="#F6F88D"/>
<path transform="translate(170,596)" d="m0 0h4v3l-5 3-5 1-3-1v-3z" fill="#FDFE62"/>
<path transform="translate(543,593)" d="m0 0h2l3 8v5l-2-1-3-8h-15l2-2z" fill="#F9FB85"/>
<path transform="translate(613,591)" d="m0 0v3l-6 5-8 4-1-2 4-4 7-4z" fill="#FAFA66"/>
<path transform="translate(691,398)" d="m0 0 1 3-12 6-5 2-3-1 10-6z" fill="#FCFD74"/>
<path transform="translate(517,948)" d="m0 0h2v6l-2 5-5-1-1-6h5z" fill="#FCFE77"/>
<path transform="translate(487,374)" d="m0 0h2l-1 4-14 4-5 1v-2l7-3 10-3z" fill="#FAFC82"/>
<path transform="translate(951,166)" d="m0 0 4 1 1 5-3 5h-3v2h-2l1-6z" fill="#FDFE6C"/>
<path transform="translate(805,674)" d="m0 0 5 1 8 4-1 4-5-2-7-6z" fill="#FDFE71"/>
<path transform="translate(840,614)" d="m0 0 5 1 8 4 1 3-7-1-7-4z" fill="#FCFD64"/>
<path transform="translate(663,495)" d="m0 0h2v7l-2 10-4 3 1-7z" fill="#FBFD6E"/>
<path transform="translate(582,385)" d="m0 0 5 2 10 9 6 7-1 2-10-11-10-7z" fill="#FAFD90"/>
<path transform="translate(940,157)" d="m0 0h10l6 6 1 3v7l-2-1-1-9h-2v-2l-7-2-5-1z" fill="#FBFE94"/>
<path transform="translate(820,653)" d="m0 0 5 2 7 4v4l-5-1-5-4z" fill="#FAFB6D"/>
<path transform="translate(508,363)" d="m0 0h3v2l-14 3h-8l-1-2z" fill="#F6F88C"/>
<path transform="translate(193,266)" d="m0 0 5 1 6 4 2 4-6-2-8-4z" fill="#F9FA6C"/>
<path transform="translate(703,687)" d="m0 0h8l10 6 1 3-4-1-8-5-7-2z" fill="#FAFB72"/>
<path transform="translate(533,552)" d="m0 0 2 1 5 16 2 10h-2l-6-20z" fill="#F7F98D"/>
<path transform="translate(472,549)" d="m0 0 1 4-7 10-6 9-2-1 7-11z" fill="#FAFC8F"/>
<path transform="translate(625,497)" d="m0 0h2l-2 10-3 9-2-1 1-10z" fill="#FBFC6D"/>
<path transform="translate(959,490)" d="m0 0h6v9l-2 1-1 9h-1l-1-8-1-4 4-1v-5l-6 3z" fill="#FAFC90"/>
<path transform="translate(66,412)" d="m0 0h2l-2 4-4 4h-2l-3 15h-1v-13l6-6h2v-2h2z" fill="#F7F986"/>
<path transform="translate(958,675)" d="m0 0h2v16l-3 1v-15z" fill="#FCFE7A"/>
<path transform="translate(299,613)" d="m0 0h3l2 5-1 1h-15l2-2 9-1z" fill="#FAFC79"/>
<path transform="translate(860,564)" d="m0 0 9 1 7 3v2l-7-1-9-3z" fill="#FDFE66"/>
<path transform="translate(786,65)" d="m0 0h9l-3 3h-18v-2z" fill="#FBFD8C"/>
<path transform="translate(956,786)" d="m0 0 3 1v9l-1 10-2-1z" fill="#FDFE5B"/>
<path transform="translate(836,626)" d="m0 0 7 1 7 3v3l-9-2-5-3z" fill="#FBFC68"/>
<path transform="translate(864,553)" d="m0 0 11 2 3 1v3l-8-1-7-3z" fill="#FDFE68"/>
<path transform="translate(204,138)" d="m0 0h24v2h-24z" fill="#F4F68A"/>
<path transform="translate(780,578)" d="m0 0 4 1 13 10 1 2-6-2-11-9z" fill="#FBFD84"/>
<path transform="translate(78,423)" d="m0 0 1 3-3 1-1 11-2 5h-1v-13z" fill="#FCFE8C"/>
<path transform="translate(943,328)" d="m0 0h2v23l-2 1z" fill="#E2E1A6"/>
<path transform="translate(812,668)" d="m0 0 8 1 6 3-1 2-10-2-3-2z" fill="#FBFC6C"/>
<path transform="translate(442,666)" d="m0 0 3 1v11h-3l-1-4v-7z" fill="#FDFE53"/>
<path transform="translate(202,651)" d="m0 0h4l-2 4-7 3h-3v-4z" fill="#FCFD60"/>
<path transform="translate(971,642)" d="m0 0h1v19h-2v5h-1v-10l1-11z" fill="#FCFE7C"/>
<path transform="translate(448,567)" d="m0 0 6 2 2 2 5 2-1 3h-4l-3-3-5-3z" fill="#FBFC6C"/>
<path transform="translate(394,505)" d="m0 0m-5 1h5l-1 2-14 4h-7l3-2z" fill="#FAFD93"/>
<path transform="translate(358,247)" d="m0 0 5 4 2 5h2l6 8-1 4-8-11-6-8z" fill="#F9FC95"/>
<path transform="translate(215,105)" d="m0 0h8l-1 4h-13v-3h5z" fill="#F0F190"/>
<path transform="translate(402,496)" d="m0 0 4 4 3 10v4h-2l-5-15z" fill="#FCFD71"/>
<path transform="translate(959,724)" d="m0 0h1v24h-1l-1-9h-1v-11z" fill="#FDFE52"/>
<path transform="translate(846,605)" d="m0 0 9 2 3 1v4l-5-1-7-3z" fill="#FBFB69"/>
<path transform="translate(164,573)" d="m0 0 1 3-10 4-4-1v-2z" fill="#FAFB6E"/>
<path transform="translate(578,529)" d="m0 0 4 2 11 8 4 5-5-2-7-6-7-5z" fill="#F9FB8F"/>
<path transform="translate(613,428)" d="m0 0 1 3-5 4-10 5h-3v-2l13-7 4-1z" fill="#FAFD93"/>
<path transform="translate(174,138)" d="m0 0h23v3h-18l-6-1z" fill="#F4F68E"/>
<path transform="translate(677,690)" d="m0 0h10l5 1-3 2h-8l-5 1-1-3z" fill="#FDFE6D"/>
<path transform="translate(225,687)" d="m0 0h4v2l-5 5h-6l1-4z" fill="#FCFD6F"/>
<path transform="translate(448,529)" d="m0 0v3l-12 11-5 2 2-4 12-9z" fill="#F8FB93"/>
<path transform="translate(597,415)" d="m0 0 3 1-11 9-6 5h-2l2-4 13-10z" fill="#F7F992"/>
<path transform="translate(462,398)" d="m0 0 3 1 8 12 1 4-3-1-9-15z" fill="#FAFD84"/>
<path transform="translate(187,277)" d="m0 0h6l6 3v3l-5-1-7-2z" fill="#F9FA69"/>
<path transform="translate(945,891)" d="m0 0h2v17l-2 2-1-7z" fill="#FDFD58"/>
<path transform="translate(71,838)" d="m0 0h2l1 11-2 4h-2l-1 5-1-4 3-6z" fill="#F8FA9F"/>
<path transform="translate(644,682)" d="m0 0 4 1 5 5 1 3 4 4-4 1-8-12z" fill="#FBFE8C"/>
<path transform="translate(825,645)" d="m0 0 8 1 5 3v2l-7-1-6-3z" fill="#FCFD67"/>
<path transform="translate(226,338)" d="m0 0 16 7 2 3-9-3-7-3v-2l-4-1z" fill="#F9FB88"/>
<path transform="translate(289,307)" d="m0 0 4 2 11 6v2l-9-3-7-4z" fill="#FBFC80"/>
<path transform="translate(703,266)" d="m0 0h9l-1 5-6 1-2-3z" fill="#FAFA69"/>
<path transform="translate(240,205)" d="m0 0 4 2 3 5-2 4h-2l-3-7z" fill="#FCFD6A"/>
<path transform="translate(230,138)" d="m0 0h13l5 1-1 3-18-2z" fill="#F2F490"/>
<path transform="translate(953,922)" d="m0 0 1 4-4 6-5 2 1-4z" fill="#FAFC9D"/>
<path transform="translate(662,678)" d="m0 0h3l1 4h2l9 9-3 1-7-6z" fill="#F8FB8F"/>
<path transform="translate(831,635)" d="m0 0 6 1 6 4v2l-5-1-6-3z" fill="#FCFD71"/>
<path transform="translate(461,574)" d="m0 0 15 6-1 3-12-5-3-3z" fill="#FAFD93"/>
<path transform="translate(495,558)" d="m0 0h2l-4 17-2 6h-1l1-9z" fill="#FAFC91"/>
<path transform="translate(394,538)" d="m0 0 4 2-6 3-9 3v-3z" fill="#F9FB7D"/>
<path transform="translate(759,519)" d="m0 0 7 4 8 8-1 3-4-4v-2l-4-2-6-5z" fill="#F3F597"/>
<path transform="translate(343,401)" d="m0 0 15 6v2l-9-2-9-4z" fill="#FAFC81"/>
<path transform="translate(818,847)" d="m0 0 4 5v11l-5 5v-3l2-1 1-7-2-6z" fill="#FBFE91"/>
<path transform="translate(715,616)" d="m0 0h9l4 1v2h-18v-2z" fill="#FCFE7C"/>
<path transform="translate(420,592)" d="m0 0 8 6 3 3-2 2-9-7-1-3z" fill="#FAFB7C"/>
<path transform="translate(417,532)" d="m0 0 3 1 6 10-1 3-1-2h-2l-4-8z" fill="#F9FC87"/>
<path transform="translate(774,532)" d="m0 0 2 1v2h2l9 12h-3l-10-12z" fill="#FAFC7D"/>
<path transform="translate(959,511)" d="m0 0 5 1 2 2v3l-6-1-3 1v-4z" fill="#FDFE6F"/>
<path transform="translate(408,422)" d="m0 0 4 1v2l5 1-2 5h-3l-2-5-3-1z" fill="#FBFC60"/>
<path transform="translate(240,330)" d="m0 0 5 1 11 4-2 1-1 2-13-6z" fill="#FAFB80"/>
<path transform="translate(313,187)" d="m0 0 1 2 3 1 4 7-2 3-7-11z" fill="#F7F881"/>
<path transform="translate(90,911)" d="m0 0 4 2 5 5v2l4 2 1 3-4-2-8-8z" fill="#FAFC9D"/>
<path transform="translate(869,543)" d="m0 0 9 1 3 3-1 1-7-1-6-2z" fill="#FCFD6F"/>
<path transform="translate(626,306)" d="m0 0 2 1-6 8-5 6-1-2 8-12z" fill="#FAFC92"/>
<path transform="translate(182,287)" d="m0 0 9 2 2 2-1 4-6-4-4-1z" fill="#F9FA6F"/>
<path transform="translate(74,137)" d="m0 0 4 1 3 5-1 8h-8l1-2 4-1 1-6v-2h-2v-2z" fill="#FDFD5A"/>
<path transform="translate(955,82)" d="m0 0h3v2l4 2 8 6v2l-4-1-3-2v-2l-4-2z" fill="#F7F9B5"/>
<path transform="translate(214,755)" d="m0 0 22 1v1l-9 1h-10l-3-1z" fill="#EEEFA1"/>
<path transform="translate(658,709)" d="m0 0h1v16l-3-1v-11z" fill="#FDFE5A"/>
<path transform="translate(800,685)" d="m0 0 6 1 5 5-3 1-8-5z" fill="#FAFB71"/>
<path transform="translate(187,629)" d="m0 0h2l-1 4-3 2h-7v-2z" fill="#FCFD6A"/>
<path transform="translate(166,585)" d="m0 0h2l-1 3-5 2h-6l-1-2 5-2z" fill="#FAFB6F"/>
<path transform="translate(716,384)" d="m0 0 2 1-5 4h-3v2l-4 1v2l-4 1-2-2 6-3 6-4z" fill="#F8FA94"/>
<path transform="translate(861,320)" d="m0 0 2 1v2l-12 5v-3z" fill="#FDFE6D"/>
<path transform="translate(45,224)" d="m0 0h1l1 16h-2l-1-2v-13z" fill="#FBFE99"/>
<path transform="translate(158,138)" d="m0 0h14l-1 3-7 1-7-2z" fill="#F8FA83"/>
<path transform="translate(61,927)" d="m0 0h2l5 6v2l3 1v2h2l1 3-5-2-8-10z" fill="#F8FAB5"/>
<path transform="translate(80,860)" d="m0 0h2l-1 7-3-1-5 1-2-4h2v2l6-4z" fill="#FDFE68"/>
<path transform="translate(958,735)" d="m0 0h1l1 16-1 4h-2v-16z" fill="#FCFE92"/>
<path transform="translate(220,675)" d="m0 0h2l-2 4-6 6-3-1 1-3z" fill="#FDFE6E"/>
<path transform="translate(575,580)" d="m0 0 1 4-12 4-4-1 11-5z" fill="#FAFD95"/>
<path transform="translate(956,566)" d="m0 0h2v17l-2 1z" fill="#EDED96"/>
<path transform="translate(263,506)" d="m0 0h2l-2 4-8 8-2-1 3-5 5-4h2z" fill="#FBFD77"/>
<path transform="translate(623,423)" d="m0 0 2 2-6 3v3h-5l-1-4z" fill="#FBFC6E"/>
<path transform="translate(264,293)" d="m0 0 6 2 5 3-1 4-10-7z" fill="#FDFE64"/>
<path transform="translate(233,211)" d="m0 0h3l1 3 5 3-1 2-5-1-3-2z" fill="#FAFB70"/>
<path transform="translate(489,666)" d="m0 0 4 1-2 11h-2z" fill="#FDFE6B"/>
<path transform="translate(246,579)" d="m0 0 2 1-16 10-2-1 5-4z" fill="#FCFF94"/>
<path transform="translate(656,526)" d="m0 0 2 1-1 5-3 8-3-1z" fill="#FCFE87"/>
<path transform="translate(293,298)" d="m0 0 8 4v2l5 2 2 1v2l-5-2-9-5z" fill="#FAFC94"/>
<path transform="translate(197,256)" d="m0 0h8l5 6-10-3z" fill="#F8F97B"/>
<path transform="translate(345,231)" d="m0 0h2l11 14v2h-2l-11-14z" fill="#FBFE91"/>
<path transform="translate(936,168)" d="m0 0 1 3 4 2 2 6-4-1-4-7z" fill="#FDFD5C"/>
<path transform="translate(666,122)" d="m0 0 5 1-2 5-1 3-3 1z" fill="#FAFB73"/>
<path transform="translate(823,891)" d="m0 0 1 4-3 7-7 6v-3l5-5z" fill="#FBFE95"/>
<path transform="translate(956,887)" d="m0 0 3 1v7l-2 6h-1z" fill="#FDFD5F"/>
<path transform="translate(76,851)" d="m0 0 6 4 1 5h-2l-1-4h-5l-2 2-1-5h3z" fill="#FBFE99"/>
<path transform="translate(350,720)" d="m0 0 2 4-5 6-4-1 6-8z" fill="#FDFE70"/>
<path transform="translate(956,684)" d="m0 0h1l1 7h2l-1 6-3 3z" fill="#FCFE8D"/>
<path transform="translate(766,543)" d="m0 0 4 2 8 7 3 4-1 3-1-3h-2l-7-8z" fill="#F8FA92"/>
<path transform="translate(619,514)" d="m0 0 3 3-5 10-2-3z" fill="#FBFD92"/>
<path transform="translate(766,510)" d="m0 0h2v2l4 2 4 3v2l3 1-3 2-5-6-5-4z" fill="#FAFC8D"/>
<path transform="translate(785,495)" d="m0 0 4 1 1 4-2 3h-3z" fill="#FCFD5E"/>
<path transform="translate(65,145)" d="m0 0 2 4v2l8-1 2 2-5 2-5-1-3-3z" fill="#FBFE96"/>
<path transform="translate(186,122)" d="m0 0h14l1 2-7 1-9-1z" fill="#FBFD7F"/>
<path transform="translate(211,668)" d="m0 0h3l-2 4-3 2h-5l1-3z" fill="#FDFE64"/>
<path transform="translate(542,582)" d="m0 0h6l-1 3-10 2-4-2z" fill="#FCFE89"/>
<path transform="translate(68,545)" d="m0 0 5 1 3 4v4h-3l-1-6-4-1z" fill="#FCFD65"/>
<path transform="translate(409,535)" d="m0 0 4 5 6 9-4-2-1-3h-2l-5-8z" fill="#F7F995"/>
<path transform="translate(373,527)" d="m0 0 2 2 5 12h-3l-5-12z" fill="#FAFC8D"/>
<path transform="translate(797,505)" d="m0 0h2v2h2l3 3v2h2l3 5h-4l-6-8z" fill="#F9FB87"/>
<path transform="translate(199,335)" d="m0 0 9 2 2 4-5-1-9-3z" fill="#FBFD8A"/>
<path transform="translate(288,320)" d="m0 0h6l8 5v2l-4-1-10-5z" fill="#F8FA86"/>
<path transform="translate(251,312)" d="m0 0 6 1 7 3-2 1-1 2-10-6z" fill="#FAFC86"/>
<path transform="translate(280,314)" d="m0 0 5 1 6 4v1l-7-1-5-3z" fill="#FDFE5E"/>
<path transform="translate(956,877)" d="m0 0 3 1v10l-3-1z" fill="#FCFE8E"/>
<path transform="translate(614,813)" d="m0 0 5 5-1 5-4-1z" fill="#FDFE67"/>
<path transform="translate(958,775)" d="m0 0h2l-1 12-2 1-1-5 1-7z" fill="#FCFF94"/>
<path transform="translate(171,768)" d="m0 0h7l-1 2-7 2-3 5h-1v-5z" fill="#FBFD7C"/>
<path transform="translate(373,696)" d="m0 0v3l-7 9h-3l2-4z" fill="#FAFC91"/>
<path transform="translate(441,572)" d="m0 0 9 5 1 2-1 2h-2v-2l-4-2-4-4z" fill="#F5F793"/>
<path transform="translate(264,522)" d="m0 0 2 1-1 2h-2l-2 4-6 5-2-1 3-1 2-4z" fill="#FBFD7A"/>
<path transform="translate(544,365)" d="m0 0 3 1 1 4-16-3v-1z" fill="#F9FB77"/>
<path transform="translate(636,291)" d="m0 0 3 2-5 6h-2l-1 3-1-3z" fill="#FAFC81"/>
<path transform="translate(939,158)" d="m0 0 2 4 3-1v2l-7 4-1-6z" fill="#FBFE8B"/>
<path transform="translate(863,961)" d="m0 0h30v1h-30z" fill="#FCFF94"/>
<path transform="translate(438,559)" d="m0 0 4 1 7 6-1 2-5-2-3-3v-2h-2z" fill="#FBFD84"/>
<path transform="translate(159,563)" d="m0 0h3v3l-7 2h-4l1-3z" fill="#FCFD66"/>
<path transform="translate(611,530)" d="m0 0 3 1-2 1-1 5-3 5-2-1 2-5z" fill="#FAFC82"/>
<path transform="translate(398,442)" d="m0 0h1l-1 9-3 8h-1l1-7 2-9z" fill="#F8FA8B"/>
<path transform="translate(102,400)" d="m0 0h3v2l-8 6-1 2h-2l2-4 4-5z" fill="#F8FA87"/>
<path transform="translate(585,367)" d="m0 0 1 2-5 11-4-2 7-10z" fill="#FCFE8A"/>
<path transform="translate(538,336)" d="m0 0 9 1 3 3-3 1-9-2z" fill="#FAFC87"/>
<path transform="translate(715,188)" d="m0 0 1 2h5l-4 1-2 4-2 2h-3l2-4z" fill="#F6F77D"/>
<path transform="translate(910,929)" d="m0 0 1 3h-2v2l-3 3h-2l-1 3h-2l1-4 3-3h2l1-3z" fill="#FCFE84"/>
<path transform="translate(948,833)" d="m0 0h2l4 7 4 6-1 2-1-3h-2l-6-9z" fill="#FAFC98"/>
<path transform="translate(777,715)" d="m0 0 5 3 1 4h-4l-3-6z" fill="#FCFD67"/>
<path transform="translate(177,608)" d="m0 0 1 3-7 3h-4v-2z" fill="#FDFE64"/>
<path transform="translate(863,586)" d="m0 0 7 1v4l-8-2z" fill="#FDFE69"/>
<path transform="translate(554,579)" d="m0 0h5v2l-8 3-4-1 1-2z" fill="#FDFE64"/>
<path transform="translate(608,552)" d="m0 0h2l4 5-1 2-3-2-6 1 2-4z" fill="#FAFC80"/>
<path transform="translate(969,405)" d="m0 0 3 1-1 5-3 4-4-1 4-3z" fill="#FCFD6C"/>
<path transform="translate(473,339)" d="m0 0 4 1v2l-2 1h-9l1-2z" fill="#FDFE5F"/>
<path transform="translate(176,299)" d="m0 0h7l4 4-9-1-2-1z" fill="#FBFD71"/>
<path transform="translate(797,218)" d="m0 0h2l-1 4-7 5-2-2z" fill="#FCFE79"/>
<path transform="translate(76,140)" d="m0 0h2l1 6-2 3-6 2-1-4 6-1v-4z" fill="#FAFD9B"/>
<path transform="translate(115,116)" d="m0 0 7 6v6l-2 2-1-7-4-4z" fill="#F8FAA0"/>
<path transform="translate(944,89)" d="m0 0 7 6 1 4-4-2-4-4z" fill="#FAFC96"/>
<path transform="translate(56,66)" d="m0 0h2l1 10 1 3h2l-1 3-2-4-3-1-1-3 1-7z" fill="#FAFCB0"/>
<path transform="translate(97,963)" d="m0 0 3 1v2l6 3v2l3 1-3 1-4-3v-2l-5-2z" fill="#FAFC9B"/>
<path transform="translate(73,849)" d="m0 0 9 1-1 3-4-1-3 2-2-2z" fill="#FDFE56"/>
<path transform="translate(793,539)" d="m0 0 6 1 3 4v2l-4-1z" fill="#FDFE62"/>
<path transform="translate(402,304)" d="m0 0h2l7 10v3l-10-11z" fill="#F9FC90"/>
<path transform="translate(218,122)" d="m0 0h9v3h-9z" fill="#FAFC7F"/>
<path transform="translate(99,946)" d="m0 0h2v2l4 2 5 4v2l-4-2-6-4z" fill="#F8FAAB"/>
<path transform="translate(90,937)" d="m0 0 4 2 2 4 3 1-1 3-4-3v-2h-2v-3h-2z" fill="#FAFD9E"/>
<path transform="translate(961,810)" d="m0 0 7 1 3 3v5l-4-4-1-2h-7v-2z" fill="#FEFE4F"/>
<path transform="translate(395,666)" d="m0 0h3l-2 4-3 3-4 1 2-4z" fill="#F9FA78"/>
<path transform="translate(526,586)" d="m0 0h11l-1 2-10 1z" fill="#FDFE60"/>
<path transform="translate(392,487)" d="m0 0 3 3 2 12-2-1-2-9z" fill="#F6F895"/>
<path transform="translate(550,346)" d="m0 0 1 3-4 14h-2l4-16z" fill="#F7F988"/>
<path transform="translate(277,334)" d="m0 0 7 3 3 3h-5l-6-3z" fill="#FAFB74"/>
<path transform="translate(161,330)" d="m0 0 6 1 5 2v2l-10-2z" fill="#FAFC7C"/>
<path transform="translate(380,271)" d="m0 0 2 1 1 5 4 6-4-1-2-4-2-1z" fill="#FBFD8F"/>
<path transform="translate(942,264)" d="m0 0 2 3-1 5-3 4-4-1 4-3z" fill="#FBFE95"/>
<path transform="translate(164,105)" d="m0 0 4 1 3-1 2 3-1 1h-9z" fill="#F7F997"/>
<path transform="translate(958,809)" d="m0 0 4 1-3 1-2 7-1 3-1-1v-6z" fill="#FCFF94"/>
<path transform="translate(610,712)" d="m0 0 6 1 1 4-3 1-4-4z" fill="#FCFC5F"/>
<path transform="translate(46,677)" d="m0 0 2 1-1 2 3 1-1 5h-3-1z" fill="#FCFE79"/>
<path transform="translate(90,636)" d="m0 0 4 1-7 8-2-1 2-4z" fill="#FBFD8D"/>
<path transform="translate(640,507)" d="m0 0 10 1 6 2v1l-10-1-6-2z" fill="#FBFD84"/>
<path transform="translate(548,378)" d="m0 0 10 1 3 2v2l-5-1-8-3z" fill="#FBFD72"/>
<path transform="translate(549,338)" d="m0 0 7 2-3 4-4-2v-3z" fill="#FCFC5D"/>
<path transform="translate(778,199)" d="m0 0h3l-1 5-2 4h-2l1-7z" fill="#F9FA7C"/>
<path transform="translate(940,158)" d="m0 0h7l2 2-9 3-1-3z" fill="#FEFE4F"/>
<path transform="translate(614,102)" d="m0 0h3l1 5-2 3h-2z" fill="#FAFB73"/>
<path transform="translate(102,871)" d="m0 0h2v13l-2 1z" fill="#FAFCA3"/>
<path transform="translate(194,641)" d="m0 0h2l-2 4-7 2v-3z" fill="#FBFD71"/>
<path transform="translate(143,497)" d="m0 0h2l1 2v7h-3z" fill="#FCFC66"/>
<path transform="translate(390,809)" d="m0 0h3l-1 5h-5l1-4z" fill="#FCFC61"/>
<path transform="translate(719,608)" d="m0 0 4 1 4 3-5 1-3-1z" fill="#F7F881"/>
<path transform="translate(151,554)" d="m0 0h6l-1 3-6 1v-3z" fill="#FDFE57"/>
<path transform="translate(461,538)" d="m0 0h2l-2 4-5 6h-2l2-4z" fill="#F8FA8E"/>
<path transform="translate(259,495)" d="m0 0 2 1-5 5-4 3-2-1z" fill="#F4F697"/>
<path transform="translate(786,415)" d="m0 0 5 1 1 3h-7z" fill="#FAFB68"/>
<path transform="translate(876,976)" d="m0 0h13l-1 2h-10z" fill="#FAFCA2"/>
<path transform="translate(920,862)" d="m0 0h2v12l-2 2z" fill="#FCFF94"/>
<path transform="translate(784,707)" d="m0 0h2v2l4 2 1 3h-4l-3-5z" fill="#FAFB75"/>
<path transform="translate(995,618)" d="m0 0h1v13l-2-2v-10z" fill="#F2F28B"/>
<path transform="translate(659,357)" d="m0 0 2 1-8 5-4 1v-3l7-2z" fill="#FBFE8C"/>
<path transform="translate(159,341)" d="m0 0 9 3v2l-5-1-4-2z" fill="#F9F973"/>
<path transform="translate(722,256)" d="m0 0 11 2v2l-10-1z" fill="#F1F285"/>
<path transform="translate(206,247)" d="m0 0 8 1 1 3-7-1z" fill="#FBFC82"/>
<path transform="translate(602,98)" d="m0 0 3 1-1 5-3 2v-7z" fill="#F8F879"/>
<path transform="translate(151,534)" d="m0 0 3 1-4 3h-5l1-3z" fill="#FDFE64"/>
<path transform="translate(630,107)" d="m0 0 3 1-1 6-3 3z" fill="#FCFE80"/>
<path transform="translate(602,820)" d="m0 0 5 5v2l-5-1z" fill="#FCFE76"/>
<path transform="translate(401,814)" d="m0 0h4l1 3-5 1-2-1v-2z" fill="#F8F96D"/>
<path transform="translate(353,690)" d="m0 0h2l-2 4-2 2h-3l2-4z" fill="#F9FB78"/>
<path transform="translate(761,553)" d="m0 0 4 2 4 5h-3l-5-5z" fill="#F7F98A"/>
<path transform="translate(145,525)" d="m0 0h7v2l-8 2v-3z" fill="#FBFC6A"/>
<path transform="translate(632,504)" d="m0 0 5 1-1 3h-5z" fill="#FAFB75"/>
<path transform="translate(46,409)" d="m0 0 3 1-2 12h-1l-1-10z" fill="#FAFB83"/>
<path transform="translate(253,89)" d="m0 0h9l1 2-10 1z" fill="#F9FB9E"/>
<path transform="translate(894,945)" d="m0 0h2v2h-18v-1z" fill="#F9FBA6"/>
<path transform="translate(279,747)" d="m0 0 4 1-1 4-3 1z" fill="#FBFC72"/>
<path transform="translate(181,618)" d="m0 0h2v2l-7 4h-2l1-3z" fill="#FCFE7B"/>
<path transform="translate(993,555)" d="m0 0h3v4l-8-1 1-2z" fill="#FBFE91"/>
<path transform="translate(152,544)" d="m0 0h3l-2 4h-5l1-3z" fill="#F6F776"/>
<path transform="translate(784,513)" d="m0 0h2v2l3 1v2h2l1 4-7-6z" fill="#F9FB8F"/>
<path transform="translate(213,238)" d="m0 0 5 1 1 4-5-2z" fill="#F8F975"/>
<path transform="translate(310,148)" d="m0 0h3l-1 5-4-1z" fill="#FAFA70"/>
<path transform="translate(859,976)" d="m0 0h14v1l-14 1z" fill="#F7F9B5"/>
<path transform="translate(70,914)" d="m0 0h3l4 8-3-1v-2l-3-1z" fill="#FAFCA0"/>
<path transform="translate(644,807)" d="m0 0 4 4-4 2-2-3z" fill="#FDFE68"/>
<path transform="translate(661,802)" d="m0 0 3 1-3 3-4 1v-3z" fill="#FBFC74"/>
<path transform="translate(166,683)" d="m0 0 2 1-1 5-3-1v-4z" fill="#F3F377"/>
<path transform="translate(982,588)" d="m0 0h1v19h-1z" fill="#FBFD9B"/>
<path transform="translate(873,524)" d="m0 0 9 1v2l-9-1z" fill="#F7F990"/>
<path transform="translate(246,506)" d="m0 0 2 1-9 9v-3z" fill="#FCFF94"/>
<path transform="translate(252,724)" d="m0 0h3l1 4h-4z" fill="#F7F872"/>
<path transform="translate(879,502)" d="m0 0h6v3h-5z" fill="#FDFE5E"/>
<path transform="translate(298,441)" d="m0 0h6l1 3-7-1z" fill="#FBFC6F"/>
<path transform="translate(882,414)" d="m0 0 4 1v2h-8l1-2z" fill="#FCFE7B"/>
<path transform="translate(151,371)" d="m0 0h5l2 4-7-2z" fill="#F4F47C"/>
<path transform="translate(864,331)" d="m0 0h2v2l-5 2h-4v-2z" fill="#FCFE7D"/>
<path transform="translate(691,134)" d="m0 0 3 1-1 4-3 2z" fill="#F9FA76"/>
<path transform="translate(630,813)" d="m0 0 4 2-2 3-3-1z" fill="#FDFE6B"/>
<path transform="translate(233,702)" d="m0 0 4 1-6 4v-4z" fill="#FBFC79"/>
<path transform="translate(141,447)" d="m0 0 6 1-1 2h-6z" fill="#FDFE5F"/>
<path transform="translate(571,414)" d="m0 0v3l-3 2h-3v-2z" fill="#FCFE73"/>
<path transform="translate(156,351)" d="m0 0 6 1 2 2-2 1-6-2z" fill="#F7F888"/>
<path transform="translate(849,297)" d="m0 0h2v3l-4 2-3-1z" fill="#FCFE77"/>
<path transform="translate(165,220)" d="m0 0h3l-1 5h-3z" fill="#F9F975"/>
<path transform="translate(335,134)" d="m0 0 2 1-1 5-3-1 1-4z" fill="#F9FA6E"/>
<path transform="translate(414,818)" d="m0 0h2l1 4h-5v-3z" fill="#FDFE57"/>
<path transform="translate(356,794)" d="m0 0h2l-1 5-3-1v-3z" fill="#FBFC66"/>
<path transform="translate(764,734)" d="m0 0 3 1-1 3-4 1 1-4z" fill="#FCFE75"/>
<path transform="translate(795,701)" d="m0 0h2l-1 6-3-1z" fill="#FBFC6E"/>
<path transform="translate(611,668)" d="m0 0 2 3-1 3h-3l1-5z" fill="#F6F87F"/>
<path transform="translate(320,616)" d="m0 0 6 1v2h-7z" fill="#F9FA79"/>
<path transform="translate(143,514)" d="m0 0h7l-1 2-6 1z" fill="#FBFC6A"/>
<path transform="translate(400,376)" d="m0 0 3 1v4l-4-1z" fill="#F8FA92"/>
<path transform="translate(769,190)" d="m0 0 3 1-1 3-4 2 1-4z" fill="#FCFD7F"/>
<path transform="translate(257,189)" d="m0 0h3l1 5-4-2z" fill="#F7F87A"/>
<path transform="translate(682,791)" d="m0 0 4 1v2l-4 1z" fill="#FDFE6F"/>
<path transform="translate(323,777)" d="m0 0h3l-1 4-4-1z" fill="#FDFE66"/>
<path transform="translate(261,732)" d="m0 0 3 1 1 4-5-2z" fill="#F0F087"/>
<path transform="translate(164,659)" d="m0 0h3l1 3-1 2-3-1z" fill="#F9F969"/>
<path transform="translate(307,610)" d="m0 0h3l-2 4-4-1z" fill="#FAFC83"/>
<path transform="translate(872,535)" d="m0 0h6l2 1v2l-7-1z" fill="#F8F971"/>
<path transform="translate(876,513)" d="m0 0h8l1 2h-7z" fill="#FCFE81"/>
<path transform="translate(766,497)" d="m0 0 5 2 4 5-4-2z" fill="#FCFE8F"/>
<path transform="translate(880,491)" d="m0 0h7l-1 3-6-2z" fill="#FDFE5C"/>
<path transform="translate(154,361)" d="m0 0 6 2v2l-6-1z" fill="#F7F76B"/>
<path transform="translate(654,117)" d="m0 0h3l-2 6-2 1z" fill="#FCFE7D"/>
<path transform="translate(389,110)" d="m0 0 4 1v3h-4z" fill="#FAFC7E"/>
<path transform="translate(427,99)" d="m0 0 3 1v4l-4-2z" fill="#F8F975"/>
<path transform="translate(948,76)" d="m0 0 4 1v2l3 1-1 2-6-4z" fill="#F9FBBE"/>
<path transform="translate(335,784)" d="m0 0 3 1-1 3-4-1v-2z" fill="#F8F975"/>
<path transform="translate(722,767)" d="m0 0 4 1-1 3h-3z" fill="#FDFE71"/>
<path transform="translate(745,749)" d="m0 0h5v2l-4 2z" fill="#FDFE6C"/>
<path transform="translate(269,740)" d="m0 0 4 2v3l-4-2z" fill="#EFEF86"/>
<path transform="translate(772,726)" d="m0 0 4 1-1 3h-3z" fill="#FAFB6E"/>
<path transform="translate(361,682)" d="m0 0v3l-3 4h-2l2-5z" fill="#F7F991"/>
<path transform="translate(239,438)" d="m0 0h8v2h-6z" fill="#F9FB8F"/>
<path transform="translate(142,435)" d="m0 0 5 1v2h-5z" fill="#FDFE67"/>
<path transform="translate(240,419)" d="m0 0 8 1v1h-11z" fill="#FBFE97"/>
<path transform="translate(418,409)" d="m0 0h2l-2 4-3 3 1-4z" fill="#F9FB94"/>
<path transform="translate(145,402)" d="m0 0 7 1v2l-7-1z" fill="#F8F984"/>
<path transform="translate(46,394)" d="m0 0h2l-1 11h-1z" fill="#EFF09D"/>
<path transform="translate(754,365)" d="m0 0v3l-5 3-2-1z" fill="#F9FC95"/>
<path transform="translate(761,330)" d="m0 0 3 1-6 4-2-1z" fill="#FCFE8F"/>
<path transform="translate(302,294)" d="m0 0 4 1 3 2v2l-4-2-3-1z" fill="#F9FC90"/>
<path transform="translate(831,268)" d="m0 0h2v2l-5 3h-2v-2z" fill="#F8F988"/>
<path transform="translate(804,228)" d="m0 0h2v2h-2v2l-5 2z" fill="#FCFE8A"/>
<path transform="translate(762,183)" d="m0 0 3 1v2l-5 2z" fill="#FCFE79"/>
<path transform="translate(266,182)" d="m0 0 4 1v3l-4-1z" fill="#FAFC73"/>
<path transform="translate(753,176)" d="m0 0 3 1-3 4h-2z" fill="#F3F491"/>
<path transform="translate(642,112)" d="m0 0h3l-1 4-1 2-2-1z" fill="#FAFC73"/>
<path transform="translate(196,105)" d="m0 0h3l1 3-4 1-1-2z" fill="#FAFB80"/>
<path transform="translate(190,105)" d="m0 0 2 1-1 3-5-1z" fill="#F6F88D"/>
<path transform="translate(694,784)" d="m0 0 4 1-1 3h-3z" fill="#FDFE69"/>
<path transform="translate(143,425)" d="m0 0 5 1-1 2h-4z" fill="#F8F96D"/>
<path transform="translate(144,413)" d="m0 0h6l-1 3-5-1z" fill="#FAFB7B"/>
<path transform="translate(959,404)" d="m0 0h1v8l-2-1z" fill="#FCFE74"/>
<path transform="translate(149,382)" d="m0 0 6 1v2l-6-1z" fill="#F8F97D"/>
<path transform="translate(771,314)" d="m0 0 4 1-6 3v-3z" fill="#FCFE74"/>
<path transform="translate(310,284)" d="m0 0h1v5l-4-1z" fill="#FDFE59"/>
<path transform="translate(827,256)" d="m0 0 2 1v2l-6 1z" fill="#FCFE79"/>
<path transform="translate(812,238)" d="m0 0h2v2h-2v2l-4 1 1-3z" fill="#FAFB76"/>
<path transform="translate(227,223)" d="m0 0 4 1 1 3-6-2z" fill="#FAFB76"/>
<path transform="translate(248,197)" d="m0 0 4 1-1 4-3-3z" fill="#F5F688"/>
<path transform="translate(275,174)" d="m0 0 3 2-1 3-3-1z" fill="#F8F97D"/>
<path transform="translate(322,141)" d="m0 0 3 1v3l-4-1z" fill="#FCFE74"/>
<path transform="translate(176,106)" d="m0 0 6 1-2 2h-4z" fill="#F6F894"/>
<path transform="translate(641,801)" d="m0 0h2l1 6-3-3z" fill="#FDFE66"/>
<path transform="translate(366,800)" d="m0 0 3 1-1 3-3-1z" fill="#EFF087"/>
<path transform="translate(670,796)" d="m0 0 3 1v4h-2z" fill="#FCFE7D"/>
<path transform="translate(629,723)" d="m0 0 3 2v3l-3-1-1-3z" fill="#F4F68F"/>
<path transform="translate(141,489)" d="m0 0 5 1v2l-5-1z" fill="#F5F578"/>
<path transform="translate(262,440)" d="m0 0 3 1v3l-4-1z" fill="#FAFB6D"/>
<path transform="translate(319,387)" d="m0 0 7 1v2l-7-2z" fill="#F6F890"/>
<path transform="translate(744,371)" d="m0 0 3 1-4 3-3-1z" fill="#FCFE8E"/>
<path transform="translate(481,346)" d="m0 0 2 2 1 6h-2z" fill="#F9FB8A"/>
<path transform="translate(713,146)" d="m0 0 4 2v2l-4-1z" fill="#FDFE66"/>
<path transform="translate(415,102)" d="m0 0 3 2-1 3-3-2z" fill="#FAFB6D"/>
<path transform="translate(899,77)" d="m0 0h11v1l-10 1z" fill="#F7F8BF"/>
<path transform="translate(759,51)" d="m0 0h12v1h-12z" fill="#EEEEC0"/>
<path transform="translate(830,959)" d="m0 0h5l-4 2-4 1z" fill="#FAFD9C"/>
<path transform="translate(377,805)" d="m0 0h2v4h-3z" fill="#FAFB70"/>
<path transform="translate(657,683)" d="m0 0 2 1v5h-2z" fill="#F7F766"/>
<path transform="translate(333,671)" d="m0 0v3l-1 3h-2l1-4z" fill="#FDFE68"/>
<path transform="translate(199,661)" d="m0 0h2v2h-2v2l-3-1z" fill="#F9FB90"/>
<path transform="translate(702,616)" d="m0 0h2v3h-5z" fill="#FDFE68"/>
<path transform="translate(548,606)" d="m0 0 2 3v6l-2-4z" fill="#FBFE98"/>
<path transform="translate(148,392)" d="m0 0 5 1-1 2-4-1z" fill="#F4F57B"/>
<path transform="translate(282,371)" d="m0 0 6 1-1 3z" fill="#F6F898"/>
<path transform="translate(524,364)" d="m0 0 7 1v1h-6z" fill="#F0F18E"/>
<path transform="translate(925,340)" d="m0 0h2v6h-2z" fill="#E3E3B3"/>
<path transform="translate(702,141)" d="m0 0h3l-1 4h-2z" fill="#FCFE74"/>
<path transform="translate(679,128)" d="m0 0h3l-1 4h-2z" fill="#F9FB83"/>
<path transform="translate(261,121)" d="m0 0 1 4-4-1v-2z" fill="#FCFE85"/>
<path transform="translate(254,106)" d="m0 0 4 1v2l-5-1z" fill="#EEEF99"/>
<path transform="translate(202,106)" d="m0 0 5 1-3 2h-2z" fill="#F1F3A7"/>
<path transform="translate(187,959)" d="m0 0h10v1h-10z" fill="#FAFD9D"/>
<path transform="translate(113,932)" d="m0 0 3 1 2 4-4-2z" fill="#FCFF94"/>
<path transform="translate(345,789)" d="m0 0h2v5h-2z" fill="#FCFE86"/>
<path transform="translate(705,778)" d="m0 0 4 1-1 2h-3z" fill="#FCFE78"/>
<path transform="translate(692,617)" d="m0 0 5 1v1h-6z" fill="#FDFE6A"/>
<path transform="translate(291,609)" d="m0 0h3v3l-4-1z" fill="#F6F78B"/>
<path transform="translate(296,607)" d="m0 0h5v2h-5z" fill="#FCFE86"/>
<path transform="translate(230,522)" d="m0 0 2 1-3 3h-2l1-3z" fill="#F9FB8F"/>
<path transform="translate(636,491)" d="m0 0h2l-2 6-1-4z" fill="#F9FB8F"/>
<path transform="translate(883,447)" d="m0 0h4v2h-6z" fill="#FBFE8A"/>
<path transform="translate(421,419)" d="m0 0 1 2-4 4v-3h2z" fill="#F8FA94"/>
<path transform="translate(117,412)" d="m0 0h2l-2 4h-2z" fill="#FDFE71"/>
<path transform="translate(878,403)" d="m0 0h5l-1 2h-5z" fill="#FCFE78"/>
<path transform="translate(878,393)" d="m0 0 4 1v1h-7z" fill="#F9FB88"/>
<path transform="translate(376,115)" d="m0 0h3l-1 4-2-1z" fill="#F8FA86"/>
<path transform="translate(110,111)" d="m0 0 4 2 1 3h-2v-2h-3z" fill="#F5F899"/>
<path transform="translate(403,105)" d="m0 0 2 1v3h-3z" fill="#FCFD83"/>
<path transform="translate(158,105)" d="m0 0h2l1 4h-3z" fill="#F7F9AF"/>
<path transform="translate(233,90)" d="m0 0 5 1 1 2-4-1z" fill="#FBFE8A"/>
<path transform="translate(163,90)" d="m0 0h8l-1 2-7-1z" fill="#FAFD9D"/>
<path transform="translate(822,976)" d="m0 0 5 1v1h-5z" fill="#FBFD89"/>
<path transform="translate(214,969)" d="m0 0h9v1h-9z" fill="#F6F7C2"/>
<path transform="translate(679,784)" d="m0 0 3 1v3h-2z" fill="#FDFE56"/>
<path transform="translate(309,771)" d="m0 0 4 1v2l-4-1z" fill="#F8FA94"/>
<path transform="translate(731,616)" d="m0 0 2 1v2h-4v-2z" fill="#FCFE75"/>
<path transform="translate(241,497)" d="m0 0 1 3-4 1v-2z" fill="#FCFE84"/>
<path transform="translate(631,445)" d="m0 0 2 2v5l-2-3z" fill="#FCFF94"/>
<path transform="translate(764,441)" d="m0 0 4 1v2l-4-1z" fill="#EEEF88"/>
<path transform="translate(883,435)" d="m0 0h3l-1 3-3-1z" fill="#F5F78A"/>
<path transform="translate(457,416)" d="m0 0 4 1v2l-4-1z" fill="#EEEF90"/>
<path transform="translate(551,408)" d="m0 0 3 1v2l-4-1z" fill="#F2F38D"/>
<path transform="translate(853,309)" d="m0 0h3v2l-5 1v-2z" fill="#F8FB96"/>
<path transform="translate(625,279)" d="m0 0h2l-2 4-2-1z" fill="#F9FA87"/>
<path transform="translate(260,105)" d="m0 0 3 1-1 3-2-1z" fill="#FDFE6D"/>
<path transform="translate(220,90)" d="m0 0h3v3h-3z" fill="#ECECAE"/>
<path transform="translate(246,90)" d="m0 0h5l-1 3z" fill="#F4F594"/>
<path transform="translate(153,89)" d="m0 0h3v3h-3z" fill="#F8FAA5"/>
<path transform="translate(832,976)" d="m0 0 4 1v1h-5z" fill="#FBFE99"/>
<path transform="translate(122,961)" d="m0 0h8v1h-8z" fill="#F8F8D1"/>
<path transform="translate(199,959)" d="m0 0h8v1h-8z" fill="#FCFF94"/>
<path transform="translate(113,958)" d="m0 0 4 1v2l-4-1z" fill="#F9FCA5"/>
<path transform="translate(714,774)" d="m0 0 3 1-4 2z" fill="#FDFE68"/>
<path transform="translate(756,742)" d="m0 0h2l-1 4-2-2z" fill="#FDFE71"/>
<path transform="translate(115,642)" d="m0 0 1 3h-2v2l-2-1 1-2h2z" fill="#F4F69A"/>
<path transform="translate(286,612)" d="m0 0h3v2l-3 1z" fill="#F3F5A0"/>
<path transform="translate(567,538)" d="m0 0 3 1-1 2-3-1z" fill="#FBFD88"/>
<path transform="translate(869,470)" d="m0 0 2 2h-7v-1z" fill="#E4E3AD"/>
<path transform="translate(123,471)" d="m0 0h8v1h-8z" fill="#F8FA97"/>
<path transform="translate(402,279)" d="m0 0 4 1v2l-4-2z" fill="#FCFE8B"/>
<path transform="translate(613,274)" d="m0 0h2v4h-2z" fill="#FCFE82"/>
<path transform="translate(817,248)" d="m0 0 3 1-5 2z" fill="#FCFF94"/>
<path transform="translate(44,112)" d="m0 0h1v8h-1z" fill="#E8E7C4"/>
<path transform="translate(226,90)" d="m0 0 4 1h-3v2h-2z" fill="#EFEFA0"/>
<path transform="translate(214,90)" d="m0 0h3v3l-3-1z" fill="#FCFF94"/>
<path transform="translate(159,89)" d="m0 0 3 1-1 2-3-1z" fill="#FBFCBA"/>
<path transform="translate(900,976)" d="m0 0 4 1-4 1z" fill="#FCFF94"/>
<path transform="translate(449,681)" d="m0 0h4v2l-4-1z" fill="#FCFF94"/>
<path transform="translate(57,654)" d="m0 0h1v7h-1z" fill="#FCFF94"/>
<path transform="translate(283,616)" d="m0 0 1 3h-3z" fill="#F3F487"/>
<path transform="translate(723,587)" d="m0 0 3 4h-3z" fill="#FDFE6C"/>
<path transform="translate(959,529)" d="m0 0h1v7h-1z" fill="#E5E6A6"/>
<path transform="translate(422,398)" d="m0 0 3 1v2l-3-1z" fill="#F3F491"/>
<path transform="translate(669,384)" d="m0 0h2l-1 3h-2z" fill="#EAEA99"/>
<path transform="translate(875,374)" d="m0 0h3v2l-4-1z" fill="#FCFF94"/>
<path transform="translate(871,353)" d="m0 0h2v3l-3-1z" fill="#F7FA97"/>
<path transform="translate(865,343)" d="m0 0 4 1-4 1z" fill="#F7F98D"/>
<path transform="translate(199,138)" d="m0 0h3l-1 3-2-1z" fill="#F7FA97"/>
<path transform="translate(69,108)" d="m0 0h2v2l2 1-4-1z" fill="#FBFD9A"/>
<path transform="translate(248,106)" d="m0 0 3 1-1 2h-2z" fill="#F3F491"/>
<path transform="translate(223,959)" d="m0 0h6v1h-6z" fill="#F0F2A4"/>
<path transform="translate(628,807)" d="m0 0 2 1v2l-3-1z" fill="#F2F385"/>
<path transform="translate(668,791)" d="m0 0 2 1v2l-3-1z" fill="#F1F39C"/>
<path transform="translate(691,780)" d="m0 0h2l1 3-3-1z" fill="#FDFE71"/>
<path transform="translate(463,685)" d="m0 0 4 1-3 1z" fill="#FAFC97"/>
<path transform="translate(419,671)" d="m0 0 1 3-2 1z" fill="#F6F998"/>
<path transform="translate(317,611)" d="m0 0h2v3h-2z" fill="#F7F881"/>
<path transform="translate(946,603)" d="m0 0h1v6h-1z" fill="#EDEEBB"/>
<path transform="translate(312,607)" d="m0 0h3v2h-3z" fill="#FCFF94"/>
<path transform="translate(352,576)" d="m0 0h2v2l-3 1z" fill="#F6F998"/>
<path transform="translate(474,545)" d="m0 0h2v3h-2z" fill="#F6F998"/>
<path transform="translate(399,438)" d="m0 0h2l-2 4z" fill="#F1F18D"/>
<path transform="translate(883,426)" d="m0 0h3v2h-3z" fill="#F7F98C"/>
<path transform="translate(312,384)" d="m0 0 4 1-3 1z" fill="#FCFF94"/>
<path transform="translate(514,346)" d="m0 0h2v3h-2z" fill="#DDDCAE"/>
<path transform="translate(415,271)" d="m0 0 2 2-1 3z" fill="#F5F7A0"/>
<path transform="translate(687,211)" d="m0 0h2v3h-2z" fill="#FCFE7D"/>
<path transform="translate(259,138)" d="m0 0h2l-1 3-2-2z" fill="#F2F391"/>
<path transform="translate(251,138)" d="m0 0 2 2-3 1z" fill="#FCFF94"/>
<path transform="translate(152,107)" d="m0 0h3v2h-3z" fill="#FCFF94"/>
<path transform="translate(915,92)" d="m0 0 4 1-3 1z" fill="#FAFCA3"/>
<path transform="translate(831,945)" d="m0 0 2 2-4-1z" fill="#FCFE78"/>
<path transform="translate(110,930)" d="m0 0 3 1-3 1z" fill="#FAFD9D"/>
<path transform="translate(104,925)" d="m0 0 3 1-3 1z" fill="#F9FBA6"/>
<path transform="translate(958,848)" d="m0 0h2l-1 3z" fill="#F2F3B4"/>
<path transform="translate(719,761)" d="m0 0h2l-1 3z" fill="#FCFE86"/>
<path transform="translate(379,722)" d="m0 0 3 1-3 1z" fill="#FCFE86"/>
<path transform="translate(225,696)" d="m0 0h2l-1 3z" fill="#EFF19E"/>
<path transform="translate(346,617)" d="m0 0h2v2l-3-1z" fill="#F6F77D"/>
<path transform="translate(292,604)" d="m0 0h2l-1 3z" fill="#FCFF94"/>
<path transform="translate(720,580)" d="m0 0 2 1v2h-2z" fill="#F5F899"/>
<path transform="translate(612,545)" d="m0 0h2l-1 3z" fill="#F6F77D"/>
<path transform="translate(628,517)" d="m0 0 1 3h-2z" fill="#F5F899"/>
<path transform="translate(782,510)" d="m0 0 2 1v2h-2z" fill="#F5F899"/>
<path transform="translate(721,381)" d="m0 0h2v2l-3-1z" fill="#FCFF94"/>
<path transform="translate(378,358)" d="m0 0h2l-1 3z" fill="#FCFF94"/>
<path transform="translate(966,322)" d="m0 0h2l-1 3z" fill="#FAFD9D"/>
<path transform="translate(284,168)" d="m0 0h2v2l-3-1z" fill="#EEEFA7"/>
<path transform="translate(80,165)" d="m0 0h1v5h-1z" fill="#FAFD9D"/>
<path transform="translate(348,128)" d="m0 0 3 1-3 1z" fill="#E3E3A8"/>
<path transform="translate(105,107)" d="m0 0 3 1-3 1z" fill="#FAFD9D"/>
<path transform="translate(177,89)" d="m0 0 2 2-4-1z" fill="#F8FAAF"/>
<path transform="translate(909,87)" d="m0 0h3v2l-3-1z" fill="#FCFF94"/>
<path transform="translate(894,976)" d="m0 0h2v2h-2z" fill="#FCFF94"/>
<path transform="translate(110,956)" d="m0 0h2v2h-2z" fill="#F7F9B6"/>
<path transform="translate(107,928)" d="m0 0 3 1h-3z" fill="#FAFD9F"/>
<path transform="translate(334,710)" d="m0 0 2 1h-3z" fill="#FCFF94"/>
<path transform="translate(579,679)" d="m0 0 2 1h-3z" fill="#E4E4A7"/>
<path transform="translate(312,676)" d="m0 0h2v2h-2z" fill="#ECEDA1"/>
<path transform="translate(57,649)" d="m0 0 1 4z" fill="#FCFF94"/>
<path transform="translate(307,617)" d="m0 0h2v2h-2z" fill="#FDFE71"/>
<path transform="translate(730,613)" d="m0 0h2v2h-2z" fill="#FCFF94"/>
<path transform="translate(295,598)" d="m0 0h2v2h-2z" fill="#FAFD9F"/>
<path transform="translate(238,549)" d="m0 0h2v2h-2z" fill="#FCFF94"/>
<path transform="translate(764,540)" d="m0 0 2 1-1 2z" fill="#FAFD9F"/>
<path transform="translate(616,540)" d="m0 0v3z" fill="#FCFF94"/>
<path transform="translate(266,520)" d="m0 0h2v2h-2z" fill="#FCFF94"/>
<path transform="translate(248,504)" d="m0 0h2v2h-2z" fill="#F4F69A"/>
<path transform="translate(243,428)" d="m0 0h2v2h-2z" fill="#E4E4A7"/>
<path transform="translate(611,415)" d="m0 0 1 4z" fill="#F9FBAB"/>
<path transform="translate(72,407)" d="m0 0 2 1h-3z" fill="#ECEDA1"/>
<path transform="translate(787,348)" d="m0 0h2v2h-2z" fill="#F4F69A"/>
<path transform="translate(666,320)" d="m0 0h2v2h-2z" fill="#F4F69A"/>
<path transform="translate(879,302)" d="m0 0h2v2h-2z" fill="#ECEDA1"/>
<path transform="translate(286,271)" d="m0 0h2v2h-2z" fill="#F2F4A6"/>
<path transform="translate(284,269)" d="m0 0h2v2h-2z" fill="#FCFF94"/>
<path transform="translate(340,212)" d="m0 0h2v2h-2z" fill="#E4E4A7"/>
<path transform="translate(338,210)" d="m0 0h2v2h-2z" fill="#F4F69A"/>
<path transform="translate(80,156)" d="m0 0 1 4z" fill="#DDDCAE"/>
<path transform="translate(721,154)" d="m0 0h2v2h-2z" fill="#ECEDA1"/>
<path transform="translate(154,138)" d="m0 0h2v2h-2z" fill="#F2F4A6"/>
<path transform="translate(87,125)" d="m0 0h2v2h-2z" fill="#F3F3DB"/>
<path transform="translate(448,125)" d="m0 0 3 1h-3z" fill="#ECEDA1"/>
<path transform="translate(365,120)" d="m0 0h2v2h-2z" fill="#EBEBAC"/>
<path transform="translate(102,120)" d="m0 0h2v2h-2z" fill="#EFF0BD"/>
<path transform="translate(77,97)" d="m0 0h2v2h-2z" fill="#FCFF94"/>
<path transform="translate(74,94)" d="m0 0h2v2h-2z" fill="#F7F9B6"/>
<path transform="translate(210,90)" d="m0 0h2v2h-2z" fill="#FAFD9F"/>
<path transform="translate(201,90)" d="m0 0 4 1z" fill="#F1F2CC"/>
<path transform="translate(182,89)" d="m0 0 2 2-3-1z" fill="#FCFF94"/>
<path transform="translate(912,89)" d="m0 0 3 1h-3z" fill="#F9FBAB"/>
<path transform="translate(946,74)" d="m0 0h2v2h-2z" fill="#F9FAC5"/>
<path transform="translate(940,69)" d="m0 0h2v2h-2z" fill="#F9FAC5"/>
<path transform="translate(171,959)" d="m0 0 3 1z" fill="#DDDCAE"/>
<path transform="translate(166,959)" d="m0 0 3 1z" fill="#EDEEBB"/>
<path transform="translate(900,940)" d="m0 0 1 2-2-1z" fill="#FCFF94"/>
<path transform="translate(923,933)" d="m0 0 2 1-2 1z" fill="#FCFF94"/>
<path transform="translate(102,850)" d="m0 0 2 2h-2z" fill="#FCFF94"/>
<path transform="translate(969,831)" d="m0 0 2 1-2 1z" fill="#FAFCA3"/>
<path transform="translate(703,772)" d="m0 0 2 1-2 1z" fill="#FCFF94"/>
<path transform="translate(338,707)" d="m0 0 1 2-2-1z" fill="#FCFF94"/>
<path transform="translate(423,586)" d="m0 0 1 2-2-1z" fill="#F1F39C"/>
<path transform="translate(656,564)" d="m0 0h2l-1 2z" fill="#FCFF94"/>
<path transform="translate(781,559)" d="m0 0h2l-1 2z" fill="#FCFF94"/>
<path transform="translate(235,517)" d="m0 0 2 1-2 1z" fill="#EFF0AC"/>
<path transform="translate(779,508)" d="m0 0h2l-1 2z" fill="#F1F39C"/>
<path transform="translate(264,492)" d="m0 0 1 2-2-1z" fill="#E7E7A5"/>
<path transform="translate(159,471)" d="m0 0 3 1z" fill="#E5E5B4"/>
<path transform="translate(727,441)" d="m0 0h2l-1 2z" fill="#FCFF94"/>
<path transform="translate(612,422)" d="m0 0h2l-1 2z" fill="#EDEEBB"/>
<path transform="translate(413,417)" d="m0 0 1 2-2-1z" fill="#F1F39C"/>
<path transform="translate(69,410)" d="m0 0 2 1-2 1z" fill="#FCFF94"/>
<path transform="translate(51,407)" d="m0 0 2 1-2 1z" fill="#EFF0AC"/>
<path transform="translate(484,359)" d="m0 0" fill="#EFF0AC"/>
<path transform="translate(936,357)" d="m0 0 1 2-2-1z" fill="#FCFF94"/>
<path transform="translate(938,355)" d="m0 0 2 1-2 1z" fill="#EFF0AC"/>
<path transform="translate(412,317)" d="m0 0 2 2h-2z" fill="#FCFF94"/>
<path transform="translate(379,299)" d="m0 0 2 2h-2z" fill="#EDEEBB"/>
<path transform="translate(839,289)" d="m0 0 2 1-2 1z" fill="#FCFF94"/>
<path transform="translate(292,276)" d="m0 0 2 2h-2z" fill="#F1F39C"/>
<path transform="translate(289,274)" d="m0 0h2l-1 2z" fill="#FCFF94"/>
<path transform="translate(255,121)" d="m0 0 2 1-2 1z" fill="#FCFF94"/>
<path transform="translate(76,115)" d="m0 0h2l-1 2z" fill="#F6F7C2"/>
<path transform="translate(108,109)" d="m0 0 2 2h-2z" fill="#F6F7C2"/>
<path transform="translate(100,102)" d="m0 0 2 1-2 1z" fill="#EFF0AC"/>
<path transform="translate(193,90)" d="m0 0 3 1z" fill="#EDEEBB"/>
<path transform="translate(187,89)" d="m0 0 2 2h-2z" fill="#E7E7A5"/>
<path transform="translate(938,66)" d="m0 0 2 2h-2z" fill="#F8F9D6"/>
<path transform="translate(827,65)" d="m0 0 3 1z" fill="#FAFCA3"/>
<path transform="translate(935,64)" d="m0 0h2l-1 2z" fill="#FBFBEA"/>
<path transform="translate(840,959)" d="m0 0 2 1z" fill="#F9FBAB"/>
<path transform="translate(210,959)" d="m0 0 2 1z" fill="#ECEDA1"/>
<path transform="translate(179,959)" d="m0 0 2 1z" fill="#ECEDA1"/>
<path transform="translate(908,943)" d="m0 0" fill="#FCFF94"/>
<path transform="translate(920,936)" d="m0 0 2 1z" fill="#F9FBAB"/>
<path transform="translate(102,895)" d="m0 0" fill="#F6F7C2"/>
<path transform="translate(402,722)" d="m0 0" fill="#FCFF94"/>
<path transform="translate(651,721)" d="m0 0 2 1z" fill="#DDDCAE"/>
<path transform="translate(340,705)" d="m0 0 2 1z" fill="#FCFF94"/>
<path transform="translate(646,700)" d="m0 0 2 1z" fill="#DDDCAE"/>
<path transform="translate(57,666)" d="m0 0" fill="#FCFF94"/>
<path transform="translate(100,658)" d="m0 0" fill="#DDDCAE"/>
<path transform="translate(110,648)" d="m0 0" fill="#FCFF94"/>
<path transform="translate(312,618)" d="m0 0 2 1z" fill="#ECEDA1"/>
<path transform="translate(720,598)" d="m0 0" fill="#FCFF94"/>
<path transform="translate(774,575)" d="m0 0 2 1z" fill="#ECEDA1"/>
<path transform="translate(997,561)" d="m0 0" fill="#FCFF94"/>
<path transform="translate(232,520)" d="m0 0 2 1z" fill="#E9E9B8"/>
<path transform="translate(261,494)" d="m0 0 2 1z" fill="#FCFF94"/>
<path transform="translate(261,482)" d="m0 0 2 1z" fill="#ECEDA1"/>
<path transform="translate(235,438)" d="m0 0 2 1z" fill="#FCFF94"/>
<path transform="translate(279,369)" d="m0 0 2 1z" fill="#FCFF94"/>
<path transform="translate(274,366)" d="m0 0 2 1z" fill="#FCFF94"/>
<path transform="translate(756,364)" d="m0 0 2 1z" fill="#F9FBAB"/>
<path transform="translate(271,364)" d="m0 0 2 1z" fill="#FCFF94"/>
<path transform="translate(933,360)" d="m0 0" fill="#FCFF94"/>
<path transform="translate(767,358)" d="m0 0" fill="#DDDCAE"/>
<path transform="translate(253,353)" d="m0 0 2 1z" fill="#FCFF94"/>
<path transform="translate(862,345)" d="m0 0" fill="#FCFF94"/>
<path transform="translate(961,328)" d="m0 0 2 1z" fill="#FCFF94"/>
<path transform="translate(964,325)" d="m0 0" fill="#FCFF94"/>
<path transform="translate(763,320)" d="m0 0 2 1z" fill="#E9E9B8"/>
<path transform="translate(295,279)" d="m0 0 2 1z" fill="#DDDCAE"/>
<path transform="translate(820,261)" d="m0 0 2 1z" fill="#FCFF94"/>
<path transform="translate(397,192)" d="m0 0" fill="#ECEDA1"/>
<path transform="translate(652,124)" d="m0 0" fill="#F9FBAB"/>
<path transform="translate(464,123)" d="m0 0 2 1z" fill="#DDDCAE"/>
<path transform="translate(84,123)" d="m0 0 2 1z" fill="#FEFEFE"/>
<path transform="translate(82,120)" d="m0 0" fill="#FAFAE0"/>
<path transform="translate(74,113)" d="m0 0 2 1z" fill="#F6F7C2"/>
<path transform="translate(97,100)" d="m0 0 2 1z" fill="#FAFAE0"/>
<path transform="translate(95,97)" d="m0 0" fill="#F6F7C2"/>
<path transform="translate(920,95)" d="m0 0 2 1z" fill="#FAFAE0"/>
<path transform="translate(92,95)" d="m0 0 2 1z" fill="#DDDCAE"/>
<path transform="translate(230,92)" d="m0 0 2 1z" fill="#E9E9B8"/>
<path transform="translate(240,90)" d="m0 0 2 1z" fill="#ECEDA1"/>
<path transform="translate(943,72)" d="m0 0 2 1z" fill="#FEFEFE"/>
<path transform="translate(110,974)" d="m0 0" fill="#F6F7C2"/>
<path transform="translate(237,946)" d="m0 0" fill="#FEFEFE"/>
<path transform="translate(918,938)" d="m0 0" fill="#F6F7C2"/>
<path transform="translate(102,890)" d="m0 0" fill="#F6F7C2"/>
<path transform="translate(403,720)" d="m0 0" fill="#FCFF94"/>
<path transform="translate(364,678)" d="m0 0" fill="#DDDCAE"/>
<path transform="translate(57,647)" d="m0 0" fill="#FCFF94"/>
<path transform="translate(294,602)" d="m0 0" fill="#DDDCAE"/>
<path transform="translate(721,601)" d="m0 0" fill="#F6F7C2"/>
<path transform="translate(769,561)" d="m0 0" fill="#FCFF94"/>
<path transform="translate(236,552)" d="m0 0" fill="#FCFF94"/>
<path transform="translate(610,549)" d="m0 0" fill="#FCFF94"/>
<path transform="translate(611,548)" d="m0 0" fill="#FCFF94"/>
<path transform="translate(762,539)" d="m0 0" fill="#FCFF94"/>
<path transform="translate(792,522)" d="m0 0" fill="#FCFF94"/>
<path transform="translate(825,471)" d="m0 0" fill="#DDDCAE"/>
<path transform="translate(261,457)" d="m0 0" fill="#FCFF94"/>
<path transform="translate(310,383)" d="m0 0" fill="#FCFF94"/>
<path transform="translate(873,364)" d="m0 0" fill="#FCFF94"/>
<path transform="translate(267,361)" d="m0 0" fill="#F6F7C2"/>
<path transform="translate(767,328)" d="m0 0" fill="#DDDCAE"/>
<path transform="translate(305,317)" d="m0 0" fill="#FCFF94"/>
<path transform="translate(424,270)" d="m0 0" fill="#FCFF94"/>
<path transform="translate(928,259)" d="m0 0" fill="#F6F7C2"/>
<path transform="translate(849,241)" d="m0 0" fill="#F6F7C2"/>
<path transform="translate(579,125)" d="m0 0" fill="#FCFF94"/>
<path transform="translate(103,105)" d="m0 0" fill="#FEFEFE"/>
<path transform="translate(243,92)" d="m0 0" fill="#DDDCAE"/>
</svg>
